<svg width="87" height="32" viewBox="0 0 87 32" fill="none" xmlns="http://www.w3.org/2000/svg">
<g clip-path="url(#clip0_3184_59544)">
<g clip-path="url(#clip1_3184_59544)">
<path d="M2.05721 1.125H0.246094V18.3894H2.05721V1.125Z" fill="#626A6B"/>
<path d="M45.5046 2.3731C44.1473 2.3731 42.8548 2.70555 41.6393 3.37045C40.4197 4.03534 39.4716 4.93334 38.7869 6.05679C38.1021 7.18406 37.7618 8.43743 37.7618 9.82455C37.7618 11.8727 38.5195 13.6038 40.0308 15.0138C41.5421 16.4277 43.3694 17.1308 45.5046 17.1308C46.9308 17.1308 48.2477 16.8022 49.4632 16.1564C50.6746 15.5029 51.6227 14.6202 52.3034 13.4891C52.9841 12.3619 53.3245 11.1161 53.3245 9.73666C53.3245 8.35718 52.9841 7.13438 52.3034 6.02622C51.6227 4.92188 50.6665 4.03534 49.4348 3.37045C48.2031 2.70555 46.8903 2.3731 45.5046 2.3731ZM45.4236 0.707031C48.195 0.707031 50.5126 1.57446 52.3804 3.31695C54.2483 5.05944 55.1802 7.20317 55.1802 9.74812C55.1802 12.2931 54.2483 14.4101 52.3885 16.1678C50.5247 17.9256 48.2558 18.8007 45.5776 18.8007C42.8994 18.8007 40.5737 17.9256 38.7099 16.1755C36.8421 14.4292 35.9102 12.3122 35.9102 9.82837C35.9102 8.17759 36.3356 6.64526 37.1865 5.22758C38.0373 3.81371 39.1961 2.70555 40.6628 1.90691C42.1296 1.10444 43.7219 0.707031 45.4277 0.707031L45.4236 0.707031Z" fill="#E14927"/>
<path d="M59.7486 10.0476V16.6737H62.0216C63.3628 16.6737 64.3473 16.5514 64.9713 16.3068C65.5953 16.0585 66.0977 15.6725 66.4745 15.149C66.8513 14.6255 67.0417 14.0561 67.0417 13.4447C67.0417 12.6805 66.7784 12.0041 66.2476 11.4347C65.7168 10.8616 64.9875 10.4718 64.0637 10.2616C63.4357 10.1202 62.3417 10.0515 60.7899 10.0515H59.7486V10.0476ZM59.7486 2.8331V8.33953H60.8061C62.0865 8.33953 63.0265 8.22871 63.6302 8.00708C64.2298 7.78163 64.7079 7.43389 65.0604 6.95241C65.4129 6.47476 65.5872 5.9436 65.5872 5.35895C65.5872 4.57559 65.2914 3.95655 64.7039 3.50564C64.1123 3.05856 63.1723 2.8331 61.8839 2.8331H59.7527H59.7486ZM57.9375 1.125H61.5557C63.0103 1.125 64.1285 1.28931 64.9105 1.6103C65.6925 1.93893 66.3084 2.43187 66.7622 3.10823C67.2159 3.77695 67.4428 4.5221 67.4428 5.34749C67.4428 6.11174 67.2484 6.80721 66.8594 7.43771C66.4664 8.0644 65.8951 8.57645 65.1374 8.9624C66.0734 9.2681 66.7946 9.62729 67.301 10.04C67.8075 10.4489 68.2005 10.9456 68.4801 11.5303C68.7597 12.1149 68.9015 12.7454 68.9015 13.4294C68.9015 14.8166 68.3626 15.9897 67.2889 16.9488C66.2152 17.908 64.7728 18.3894 62.9657 18.3894H57.9375V1.125Z" fill="#626A6B"/>
<path d="M74.0572 1.125H72.2461V18.3894H74.0572V1.125Z" fill="#626A6B"/>
<path d="M77.6084 2.8331V1.125H87.1988L79.6018 16.6737H86.8017V18.3856H76.7656L84.4112 2.8331H77.6084Z" fill="#626A6B"/>
<path d="M31.3592 1.13646V14.2625L19.2486 1.13646L18.8516 1.125L18.9204 16.9297L20.2008 18.3856H20.7518V5.37042L32.7611 18.3856H33.1744V1.125L31.3592 1.13646Z" fill="#626A6B"/>
<path d="M19.2578 1.13264L18.8202 1.13646V14.2625L6.71362 1.13646L6.3125 1.125V18.3856H8.21276V5.37042L20.2221 18.3856H20.6353L20.6029 2.68407L19.2578 1.13264Z" fill="#626A6B"/>
<path d="M8.29388 31.6078H6.64078V22.2305H8.29388V31.6078ZM5.06466 25.4785C5.06466 26.6784 4.71216 27.6567 4.01121 28.4133C3.24138 29.2425 2.11095 29.724 0.619914 29.8577C0.571293 29.6781 0.49431 29.4794 0.393017 29.2654C0.275517 29.0132 0.145862 28.7839 0 28.5738C1.28034 28.5088 2.20414 28.1305 2.75922 27.4388C3.18466 26.9077 3.3994 26.1969 3.3994 25.3028V23.652H0.380862V22.5629H5.06466V25.4747V25.4785Z" fill="#626A6B"/>
<path d="M17.93 25.7877C17.0953 25.7151 16.3417 25.5202 15.657 25.2069C15.0492 24.9318 14.563 24.5917 14.2024 24.1828C13.9107 24.5878 13.4123 24.9356 12.7032 25.2298C12.0671 25.5011 11.3824 25.6807 10.649 25.7572C10.6207 25.6272 10.5518 25.4247 10.4424 25.1419C10.3249 24.84 10.2479 24.6184 10.2033 24.4732C11.277 24.4235 12.0793 24.2057 12.6141 23.8236C13.1084 23.472 13.3556 22.9944 13.3556 22.3906H14.9965C14.9965 22.5282 14.9844 22.6314 14.9641 22.7078C14.9439 22.7842 14.9114 22.9027 14.879 23.0708C15.2761 23.4797 15.7907 23.8198 16.4106 24.0834C17.0264 24.3433 17.6909 24.5 18.4 24.5573L17.934 25.7877H17.93ZM18.6917 27.0373H14.8993V27.5531H18.0961V29.972H12.1603V30.4458H18.3108V31.405H11.2365C11.0177 31.405 10.8314 31.3171 10.6733 31.1451C10.5194 30.9808 10.4464 30.7859 10.4464 30.5643V28.9899H16.4795V28.5467H10.4464V27.5531H13.307V27.0373H9.87109V25.9673H18.6957V27.0373H18.6917Z" fill="#626A6B"/>
<path d="M27.8427 27.7552H26.2463V27.182H25.2131V25.9745H26.2463V25.3173H25.2131V24.0868H26.3233V22.2412H27.8467V27.7552H27.8427ZM22.9644 24.5798C22.7618 24.3276 22.5268 24.2015 22.2594 24.2015C21.992 24.2015 21.757 24.3276 21.5544 24.5798C21.364 24.8167 21.2708 25.0804 21.2708 25.367C21.2708 25.6535 21.368 25.9287 21.5625 26.1885C21.7651 26.4637 21.9961 26.5974 22.2594 26.5974C22.5228 26.5974 22.7537 26.4598 22.9563 26.1885C23.1508 25.9287 23.248 25.6574 23.248 25.367C23.248 25.0765 23.1548 24.8167 22.9644 24.5798ZM27.8427 31.6147H26.1248V29.2073H20.266V28.0304H27.8427V31.6109V31.6147ZM25.3023 23.934H23.9652C24.2245 24.041 24.4514 24.2359 24.6378 24.5148C24.8323 24.7976 24.9295 25.0765 24.9295 25.3555C24.9295 25.9019 24.7391 26.391 24.3623 26.8228C23.8761 27.3769 23.1751 27.6521 22.2554 27.6521C21.4086 27.6521 20.7481 27.3884 20.2781 26.8649C19.9013 26.4484 19.7109 25.9784 19.7109 25.451C19.7109 25.0842 19.8122 24.7555 20.0148 24.469C20.1809 24.2397 20.3875 24.0601 20.6347 23.9302H19.2773V22.7952H21.4734V22.0195H23.0698V22.7952H25.2982V23.9302L25.3023 23.934Z" fill="#626A6B"/>
<path d="M37.6294 28.826H36.0209V22.2344H37.6294V28.826ZM37.8158 31.413H31.0211C30.7537 31.413 30.5227 31.3213 30.3242 31.1417C30.1216 30.9545 30.0203 30.7328 30.0203 30.473V28.379H31.7058V30.2361H37.8158V31.413ZM35.0971 27.8325C34.4448 27.6835 33.9059 27.458 33.4764 27.1638C32.9983 26.8352 32.5972 26.3804 32.269 25.8034C31.9935 26.4072 31.5924 26.881 31.0616 27.2288C30.7213 27.4504 30.2472 27.6567 29.6394 27.844C29.5746 27.6223 29.4814 27.3854 29.3558 27.1332C29.2545 26.9307 29.1411 26.732 29.0195 26.5295C29.6273 26.4721 30.1783 26.1932 30.6726 25.6888C31.1669 25.1844 31.4141 24.6379 31.4222 24.0495V22.4407H33.0834V23.0865C33.0753 23.5451 33.0672 23.8469 33.0632 23.9807C33.0632 24.5348 33.3306 25.0736 33.8694 25.5971C34.3921 26.1168 34.9553 26.4148 35.5631 26.4913L35.0931 27.8287L35.0971 27.8325Z" fill="#626A6B"/>
<path d="M47.4091 27.8622H45.8127V27.182H44.7795V25.9745H45.8127V25.3173H44.7795V24.0868H45.8897V22.2412H47.4091V27.8622ZM45.3225 29.1347C44.9335 28.9704 44.423 28.8863 43.799 28.8863C43.175 28.8863 42.6726 28.9704 42.2877 29.1347C41.9312 29.2799 41.7569 29.4519 41.7569 29.6544C41.7569 29.8569 41.9352 30.0327 42.2877 30.1817C42.6767 30.346 43.1831 30.4301 43.799 30.4301C44.4149 30.4301 44.9294 30.346 45.3225 30.1817C45.679 30.0289 45.8532 29.8531 45.8532 29.6544C45.8532 29.4557 45.675 29.2799 45.3225 29.1347ZM42.5308 24.5798C42.3282 24.3276 42.0932 24.2015 41.8258 24.2015C41.5584 24.2015 41.3234 24.3276 41.1208 24.5798C40.9304 24.8167 40.8372 25.0804 40.8372 25.367C40.8372 25.6535 40.9344 25.9287 41.1289 26.1885C41.3315 26.4637 41.5625 26.5974 41.8258 26.5974C42.0892 26.5974 42.3201 26.4598 42.5227 26.1885C42.7172 25.9287 42.8144 25.6574 42.8144 25.367C42.8144 25.0765 42.7213 24.8167 42.5308 24.5798ZM46.5704 30.9995C45.8694 31.4084 44.9173 31.6147 43.722 31.6147C42.5268 31.6147 41.6151 31.4084 40.9506 30.9995C40.3631 30.6403 40.0714 30.197 40.0714 29.6735C40.0714 29.1118 40.3631 28.6571 40.9506 28.3017C41.603 27.9119 42.5268 27.7208 43.722 27.7208C44.9173 27.7208 45.8816 27.9157 46.5704 28.3017C47.2025 28.6609 47.5185 29.1194 47.5185 29.6735C47.5185 30.2276 47.2025 30.6403 46.5704 30.9995ZM44.8646 23.934H43.5275C43.7869 24.041 44.0137 24.2359 44.2001 24.5148C44.3946 24.7976 44.4959 25.0765 44.4959 25.3555C44.4959 25.9019 44.3055 26.391 43.9327 26.8228C43.4465 27.3769 42.7456 27.6521 41.8218 27.6521C40.975 27.6521 40.3145 27.3884 39.8445 26.8649C39.4677 26.4484 39.2773 25.9784 39.2773 25.451C39.2773 25.0842 39.3786 24.7555 39.5812 24.469C39.7473 24.2397 39.9539 24.0601 40.2011 23.9302H38.8438V22.7952H41.0398V22.0195H42.6362V22.7952H44.8646V23.9302V23.934Z" fill="#626A6B"/>
<path d="M54.8469 29.2498C54.458 29.1046 53.9393 29.0358 53.2951 29.0358C52.6509 29.0358 52.1282 29.1084 51.7514 29.2498C51.4192 29.3797 51.2531 29.5364 51.2531 29.7122C51.2531 29.8879 51.4192 30.0484 51.7514 30.186C52.1363 30.335 52.6509 30.4114 53.2951 30.4114C53.9393 30.4114 54.4499 30.335 54.8469 30.186C55.1954 30.0484 55.3696 29.8918 55.3696 29.7122C55.3696 29.5326 55.1954 29.3797 54.8469 29.2498ZM57.0024 26.166C56.1556 26.1431 55.479 26.0896 54.9806 26.0055C54.2027 25.8756 53.6395 25.6616 53.283 25.3597C52.9264 25.654 52.4118 25.868 51.7271 25.9979C51.2206 26.0896 50.5562 26.1469 49.7377 26.1698C49.681 25.9329 49.6202 25.6922 49.5635 25.4515C49.5027 25.2107 49.446 25.0082 49.3771 24.8401C50.2847 24.8553 50.9775 24.798 51.4637 24.6681C52.1323 24.4961 52.4645 24.1752 52.4645 23.709H49.5756V22.5664H57.205V23.709H54.15C54.15 24.2134 54.539 24.5496 55.325 24.7254C55.7464 24.8171 56.4433 24.8668 57.4238 24.8744L56.9984 26.1698L57.0024 26.166ZM57.829 27.4691H54.0893V27.9009C55.0171 27.9811 55.7018 28.1187 56.1435 28.3098C56.808 28.604 57.1524 29.0855 57.1645 29.7542C57.1645 30.2662 56.8404 30.6942 56.1962 31.0381C55.479 31.4126 54.5106 31.5999 53.2951 31.5999C52.0796 31.5999 51.1153 31.4126 50.4062 31.0381C49.762 30.6942 49.4379 30.2662 49.4379 29.7542C49.446 29.1581 49.7499 28.7033 50.3495 28.3938C50.7912 28.1645 51.4637 27.9926 52.3713 27.8856V27.4653H48.9922V26.2883H57.829V27.4653V27.4691Z" fill="#626A6B"/>
<path d="M66.829 27.4041C66.0389 27.3392 65.2731 27.022 64.5357 26.4564C63.9644 26.0246 63.4863 25.5164 63.1014 24.9356C62.7813 25.6349 62.2992 26.1928 61.6468 26.6093C61.0593 26.9914 60.3624 27.2474 59.548 27.3735C59.5035 27.1863 59.4387 26.9838 59.3536 26.766C59.2685 26.5482 59.1834 26.3227 59.1024 26.0896C60.1315 26.0399 60.954 25.6119 61.5699 24.8057C62.1006 24.0987 62.364 23.2963 62.364 22.3906H64.0049C64.0049 22.5053 63.9766 22.7384 63.9199 23.0899C63.8753 23.3115 63.8307 23.5561 63.778 23.8236C64.3291 24.4503 64.8477 24.947 65.3299 25.3139C66.0187 25.8374 66.675 26.1278 67.299 26.1775L66.833 27.4079L66.829 27.4041ZM67.5907 30.9464H58.7539V29.7695H62.1898V27.7518H63.8753V29.7695H67.5907V30.9464Z" fill="#626A6B"/>
<path d="M76.7665 31.6078H75.1134V22.2305H76.7665V31.6078ZM73.5373 25.4785C73.5373 26.6784 73.1848 27.6567 72.4839 28.4133C71.714 29.2425 70.5836 29.724 69.0926 29.8577C69.0439 29.6781 68.967 29.4794 68.8657 29.2654C68.7522 29.0132 68.6185 28.7839 68.4727 28.5738C69.7571 28.5088 70.6768 28.1305 71.2319 27.4388C71.6573 26.9077 71.8761 26.1969 71.8761 25.3028V23.652H68.8535V22.5629H73.5373V25.4747V25.4785Z" fill="#626A6B"/>
<path d="M84.8914 30.3124V29.3953H80.6087V30.3124H84.8914ZM81.8688 23.8621C81.5812 23.545 81.2408 23.3883 80.86 23.3883C80.4791 23.3883 80.1428 23.545 79.8592 23.8621C79.6039 24.1487 79.4783 24.4583 79.4783 24.7907C79.4783 25.1232 79.6039 25.425 79.8592 25.7193C80.1428 26.0517 80.475 26.216 80.86 26.216C81.2449 26.216 81.5812 26.0517 81.8688 25.7193C82.1362 25.4174 82.27 25.1079 82.27 24.7907C82.27 24.4735 82.1362 24.1487 81.8688 23.8621ZM86.5769 31.4129H79.9443C79.6687 31.4129 79.4297 31.3212 79.2271 31.1416C79.0245 30.962 78.9232 30.7404 78.9232 30.4729V27.6337H80.6087V28.3254H84.8914V27.6337H86.5769V31.4091V31.4129ZM84.9238 24.2175V22.2305H86.5526V27.3127H84.9238V25.5091H83.7488C83.5746 26.0212 83.2424 26.4491 82.7481 26.793C82.2051 27.1752 81.5852 27.3662 80.8883 27.3662C80.0253 27.3662 79.3 27.0873 78.7125 26.5256C78.1777 26.0135 77.9062 25.4441 77.9062 24.8098C77.9062 24.1755 78.1737 23.6061 78.7125 23.0941C79.3 22.5323 80.0253 22.2534 80.8883 22.2534C81.6136 22.2534 82.2497 22.4559 82.8007 22.8572C83.3031 23.2316 83.6273 23.6864 83.7812 24.2175H84.9238Z" fill="#626A6B"/>
</g>
</g>
<defs>
<clipPath id="clip0_3184_59544">
<rect width="87" height="32" fill="white"/>
</clipPath>
<clipPath id="clip1_3184_59544">
<rect width="87.1972" height="30.9063" fill="white" transform="translate(0 0.707031)"/>
</clipPath>
</defs>
</svg>
