<svg width="64" height="46" viewBox="0 0 64 46" fill="none" xmlns="http://www.w3.org/2000/svg">
<g clip-path="url(#clip0_3184_59431)">
<g clip-path="url(#clip1_3184_59431)">
<path d="M19.9307 29.9091C20.0498 29.8798 20.233 29.8633 20.4108 29.8633C20.5775 29.8633 20.7662 29.8889 20.9 29.9824C21.0264 30.0667 21.0997 30.1986 21.0997 30.3764C21.0997 30.6054 20.9935 30.7832 20.8524 30.8931C20.7021 31.0104 20.4859 31.0653 20.2623 31.0653C20.1982 31.0653 20.1414 31.0562 20.1011 31.0543L19.9746 31.7177H19.5898L19.9307 29.9109V29.9091ZM20.1597 30.7318C20.2 30.7392 20.244 30.7465 20.3136 30.7465C20.5464 30.7465 20.7039 30.5962 20.7039 30.4112C20.7039 30.2353 20.5757 30.1785 20.4254 30.1785C20.3503 30.1785 20.2972 30.1821 20.2642 30.1876L20.1616 30.7318H20.1597Z" fill="#666464"/>
<path d="M22.185 31.6377C22.0292 31.7183 21.835 31.7439 21.6848 31.7439C21.3054 31.7439 21.1094 31.5296 21.1094 31.1796C21.1094 30.7728 21.4044 30.3477 21.8881 30.3477C22.1593 30.3477 22.3536 30.5016 22.3536 30.749C22.3536 31.0879 22.0237 31.2107 21.485 31.1961C21.4887 31.2364 21.5015 31.295 21.529 31.3335C21.5803 31.4031 21.6719 31.4379 21.7874 31.4379C21.9321 31.4379 22.0549 31.405 22.1612 31.3536L22.1887 31.6377H22.185ZM21.8387 30.6353C21.6554 30.6353 21.5492 30.7893 21.5217 30.9102C21.8313 30.912 21.9834 30.8717 21.9834 30.7471C21.9834 30.6812 21.9285 30.6353 21.8387 30.6353Z" fill="#666464"/>
<path d="M22.4354 31.7167L22.5839 30.9233C22.6223 30.7199 22.6388 30.4982 22.6517 30.3827H22.9943C22.9851 30.4725 22.9797 30.5641 22.9687 30.6557H22.9778C23.0731 30.478 23.2197 30.3516 23.4029 30.3516C23.4268 30.3516 23.4524 30.3516 23.4762 30.3552L23.4011 30.7382C23.3828 30.7345 23.359 30.7345 23.337 30.7345C23.0859 30.7345 22.9668 30.9599 22.9192 31.222L22.8257 31.7185H22.4336L22.4354 31.7167Z" fill="#666464"/>
<path d="M23.4919 31.3646C23.5689 31.4013 23.7099 31.4581 23.8382 31.4581C23.95 31.4581 24.0086 31.4031 24.0086 31.3372C24.0086 31.2712 23.9646 31.2254 23.8419 31.1649C23.688 31.0879 23.5615 30.9762 23.5615 30.8094C23.5615 30.5309 23.8034 30.3477 24.1497 30.3477C24.3055 30.3477 24.4264 30.3806 24.4942 30.4155L24.3989 30.694C24.344 30.6683 24.2468 30.6372 24.1332 30.6372C24.027 30.6372 23.9592 30.6812 23.9592 30.7545C23.9592 30.8094 24.0141 30.8552 24.1204 30.9065C24.267 30.9798 24.4209 31.0861 24.4209 31.273C24.4209 31.579 24.1607 31.7439 23.8052 31.7421C23.6348 31.7403 23.4772 31.6963 23.3984 31.6377L23.4937 31.3628L23.4919 31.3646Z" fill="#666464"/>
<path d="M25.9901 30.8992C25.9901 31.3885 25.653 31.7458 25.1912 31.7458C24.8522 31.7458 24.625 31.5259 24.625 31.1924C24.625 30.7306 24.9475 30.3477 25.4221 30.3477C25.7794 30.3477 25.9883 30.5932 25.9883 30.901L25.9901 30.8992ZM25.0336 31.1869C25.0336 31.3445 25.1088 31.4471 25.2499 31.4471C25.4587 31.4471 25.5815 31.1301 25.5815 30.9029C25.5815 30.7801 25.5284 30.65 25.3726 30.65C25.1454 30.65 25.0336 30.9798 25.0336 31.1869Z" fill="#666464"/>
<path d="M26.1016 31.7167L26.2701 30.817C26.305 30.6466 26.3251 30.5018 26.3434 30.3827H26.6916L26.6659 30.6044H26.6733C26.7979 30.4322 26.9628 30.3516 27.1405 30.3516C27.3586 30.3516 27.485 30.4872 27.485 30.718C27.485 30.7785 27.474 30.8775 27.463 30.9434L27.3164 31.7185H26.9206L27.0636 30.9801C27.0709 30.9324 27.0764 30.8811 27.0764 30.8317C27.0764 30.7345 27.0434 30.6704 26.9426 30.6704C26.8144 30.6704 26.6641 30.8317 26.6091 31.1267L26.4974 31.7185H26.1034L26.1016 31.7167Z" fill="#666464"/>
<path d="M28.5148 31.7146C28.5184 31.6358 28.5258 31.5461 28.5313 31.4508H28.5258C28.403 31.6725 28.2308 31.7439 28.075 31.7439C27.835 31.7439 27.6719 31.5589 27.6719 31.2803C27.6719 30.8296 27.9724 30.3477 28.6266 30.3477C28.7896 30.3477 28.9582 30.3788 29.07 30.4136L28.9307 31.1136C28.8978 31.2858 28.8703 31.5479 28.8758 31.7146H28.5148ZM28.6266 30.6573C28.5991 30.6518 28.5624 30.6463 28.5203 30.6463C28.2656 30.6463 28.0823 30.9578 28.0823 31.2071C28.0823 31.3372 28.1336 31.4288 28.2418 31.4288C28.359 31.4288 28.5056 31.295 28.5679 30.967L28.6266 30.6592V30.6573Z" fill="#666464"/>
<path d="M29.1523 31.716L29.5243 29.7773H29.9183L29.5463 31.716H29.1542H29.1523Z" fill="#666464"/>
<path d="M30.3789 31.7154L30.6336 30.3796H31.0257L30.7729 31.7154H30.3789ZM30.8755 30.2128C30.7674 30.2128 30.6867 30.1359 30.6867 30.0204C30.6867 29.8867 30.793 29.7969 30.9121 29.7969C31.0312 29.7969 31.1119 29.8738 31.1119 29.9911C31.1119 30.1304 31.0056 30.2128 30.881 30.2128H30.8755Z" fill="#666464"/>
<path d="M31.0995 31.7167L31.2681 30.817C31.3047 30.6466 31.323 30.5018 31.3432 30.3827H31.6895L31.6639 30.6044H31.6694C31.794 30.4322 31.9589 30.3516 32.1366 30.3516C32.3547 30.3516 32.4811 30.4872 32.4811 30.718C32.4811 30.7785 32.4701 30.8775 32.4591 30.9434L32.3107 31.7185H31.9149L32.056 30.9801C32.0652 30.9324 32.0688 30.8811 32.0688 30.8317C32.0688 30.7345 32.0358 30.6704 31.9369 30.6704C31.8086 30.6704 31.6584 30.8317 31.6034 31.1267L31.4916 31.7185H31.0977L31.0995 31.7167Z" fill="#666464"/>
<path d="M32.6836 31.7159L32.8797 30.677H32.7056L32.7624 30.3783H32.9383L32.9493 30.3086C32.9749 30.1492 33.0391 29.9825 33.1728 29.8725C33.281 29.7827 33.4221 29.7461 33.5522 29.7461C33.6474 29.7461 33.7207 29.7608 33.761 29.7791L33.6914 30.0906C33.6584 30.0778 33.6181 30.0686 33.565 30.0686C33.4367 30.0686 33.3616 30.1785 33.3359 30.3123L33.3213 30.3783H33.587L33.5302 30.677H33.2681L33.0739 31.7159H32.6836Z" fill="#666464"/>
<path d="M34.9453 30.8992C34.9453 31.3885 34.6082 31.7458 34.1482 31.7458C33.8074 31.7458 33.582 31.5259 33.582 31.1924C33.582 30.7306 33.9045 30.3477 34.3791 30.3477C34.7364 30.3477 34.9453 30.5932 34.9453 30.901V30.8992ZM33.987 31.1869C33.987 31.3445 34.064 31.4471 34.2032 31.4471C34.4139 31.4471 34.5367 31.1301 34.5367 30.9029C34.5367 30.7801 34.4817 30.65 34.3278 30.65C34.1006 30.65 33.987 30.9798 33.987 31.1869Z" fill="#666464"/>
<path d="M35.0586 31.7167L35.2089 30.9233C35.2473 30.7199 35.2638 30.4982 35.2767 30.3827H35.6175C35.6101 30.4725 35.6047 30.5641 35.5937 30.6557H35.6028C35.6981 30.478 35.8465 30.3516 36.0298 30.3516C36.0536 30.3516 36.0792 30.3516 36.1031 30.3552L36.0279 30.7382C36.0096 30.7345 35.9876 30.7345 35.9656 30.7345C35.7128 30.7345 35.5955 30.9599 35.546 31.222L35.4526 31.7185H35.0586V31.7167Z" fill="#666464"/>
<path d="M36.0703 31.7146L36.2371 30.8149C36.2664 30.6445 36.2884 30.4997 36.3049 30.3806H36.642L36.6182 30.5969H36.6237C36.7465 30.4246 36.9096 30.3477 37.0818 30.3477C37.2944 30.3477 37.3878 30.4851 37.3988 30.6024C37.5197 30.4301 37.6847 30.3477 37.8606 30.3477C38.0658 30.3477 38.1849 30.4814 38.1849 30.7086C38.1849 30.7636 38.1739 30.8699 38.1629 30.9377L38.0182 31.7165H37.6352L37.7708 30.9835C37.7799 30.9322 37.7891 30.8754 37.7891 30.8222C37.7891 30.7288 37.747 30.6647 37.6572 30.6647C37.5271 30.6647 37.397 30.8406 37.3438 31.1099L37.2321 31.7146H36.8527L36.992 30.9817C37.0012 30.9267 37.0085 30.8754 37.0085 30.8296C37.0085 30.7361 36.9792 30.6647 36.8839 30.6647C36.7501 30.6647 36.6072 30.8497 36.5614 31.1154L36.4533 31.7165H36.074L36.0703 31.7146Z" fill="#666464"/>
<path d="M39.2119 31.7146C39.2156 31.6358 39.2229 31.5461 39.2284 31.4508H39.2229C39.1001 31.6725 38.9279 31.7439 38.7721 31.7439C38.5303 31.7439 38.3672 31.5589 38.3672 31.2803C38.3672 30.8296 38.6659 30.3477 39.3237 30.3477C39.485 30.3477 39.6554 30.3788 39.7653 30.4136L39.6279 31.1136C39.5931 31.2858 39.5674 31.5479 39.5729 31.7146H39.2119ZM39.3255 30.6573C39.2962 30.6518 39.2596 30.6463 39.2193 30.6463C38.9646 30.6463 38.7795 30.9578 38.7795 31.2071C38.7795 31.3372 38.8308 31.4288 38.9407 31.4288C39.058 31.4288 39.2046 31.295 39.2651 30.967L39.3255 30.6592V30.6573Z" fill="#666464"/>
<path d="M40.6113 30.0156L40.5435 30.3766H40.8294L40.7689 30.6753H40.4849L40.3951 31.1297C40.3823 31.1829 40.3731 31.2525 40.3731 31.3001C40.3731 31.3661 40.4006 31.4119 40.4867 31.4119C40.5197 31.4119 40.5619 31.4119 40.593 31.4064L40.549 31.7143C40.4977 31.7344 40.3988 31.7454 40.3182 31.7454C40.0799 31.7454 39.9682 31.6263 39.9682 31.4559C39.9682 31.3844 39.9755 31.3111 39.9975 31.2085L40.0983 30.6771H39.9297L39.9828 30.3784H40.1551L40.2045 30.1274L40.6095 30.0175L40.6113 30.0156Z" fill="#666464"/>
<path d="M40.8047 31.7154L41.0594 30.3796H41.4534L41.1987 31.7154H40.8047ZM41.3031 30.2128C41.1932 30.2128 41.1144 30.1359 41.1144 30.0204C41.1144 29.8867 41.2206 29.7969 41.3416 29.7969C41.4625 29.7969 41.5395 29.8738 41.5395 29.9911C41.5395 30.1304 41.4332 30.2128 41.3068 30.2128H41.3031Z" fill="#666464"/>
<path d="M42.9414 30.8992C42.9414 31.3885 42.6043 31.7458 42.1425 31.7458C41.8053 31.7458 41.5781 31.5259 41.5781 31.1924C41.5781 30.7306 41.9006 30.3477 42.3752 30.3477C42.7344 30.3477 42.9414 30.5932 42.9414 30.901V30.8992ZM41.9831 31.1869C41.9831 31.3445 42.06 31.4471 42.1993 31.4471C42.41 31.4471 42.531 31.1301 42.531 30.9029C42.531 30.7801 42.476 30.65 42.3202 30.65C42.0949 30.65 41.9813 30.9798 41.9813 31.1869H41.9831Z" fill="#666464"/>
<path d="M43.0547 31.7167L43.2233 30.817C43.2581 30.6466 43.2782 30.5018 43.2966 30.3827H43.6447L43.6191 30.6044H43.6246C43.751 30.4322 43.9141 30.3516 44.0918 30.3516C44.3117 30.3516 44.4363 30.4872 44.4363 30.718C44.4363 30.7785 44.4253 30.8775 44.4162 30.9434L44.2677 31.7185H43.8719L44.013 30.9801C44.0222 30.9324 44.0277 30.8811 44.0277 30.8317C44.0277 30.7345 43.9965 30.6704 43.8939 30.6704C43.7638 30.6704 43.6136 30.8317 43.5604 31.1267L43.4487 31.7185H43.0565L43.0547 31.7167Z" fill="#666464"/>
<path d="M19.9331 34.0917C19.8946 34.0514 19.8671 34.0111 19.8342 33.9671C19.7169 34.0532 19.5648 34.1229 19.3412 34.1229C18.9967 34.1229 18.7695 33.9341 18.7695 33.6373C18.7695 33.3587 18.9766 33.181 19.2148 33.0692V33.0619C19.1598 32.9666 19.1159 32.8622 19.1159 32.7504C19.1159 32.4535 19.3522 32.2227 19.6931 32.2227C19.9679 32.2227 20.1603 32.3857 20.1603 32.6313C20.1603 32.8457 19.9991 33.0033 19.7041 33.1407V33.148C19.7792 33.2616 19.8763 33.3991 19.9514 33.5017C20.0687 33.3679 20.1475 33.1975 20.2025 33.0344H20.5653C20.4663 33.3166 20.3381 33.553 20.131 33.7509C20.2025 33.8553 20.2959 33.9744 20.3985 34.0954H19.9349L19.9331 34.0917ZM19.6766 33.7399C19.5831 33.6189 19.4585 33.4449 19.3522 33.2781C19.2679 33.3386 19.1708 33.4302 19.1708 33.5676C19.1708 33.7051 19.2661 33.8278 19.4512 33.8278C19.5501 33.8278 19.6216 33.7894 19.6766 33.7399ZM19.4695 32.7064C19.4695 32.7907 19.5007 32.8677 19.552 32.9355C19.6949 32.8713 19.8103 32.7687 19.8103 32.6331C19.8103 32.547 19.7645 32.4737 19.6582 32.4737C19.552 32.4737 19.4695 32.5745 19.4695 32.7064Z" fill="#666464"/>
<path d="M21.8398 32.25L21.4898 34.0916H21.0977L21.4476 32.25H21.8416H21.8398Z" fill="#666464"/>
<path d="M21.832 34.0935L22.0024 33.192C22.0373 33.0234 22.0574 32.8787 22.0757 32.7577H22.4221L22.3982 32.9794H22.4037C22.5283 32.8072 22.6933 32.7266 22.8692 32.7266C23.0872 32.7266 23.2155 32.8603 23.2155 33.093C23.2155 33.1535 23.2045 33.2525 23.1935 33.3166L23.0469 34.0917H22.6511L22.794 33.3514C22.8032 33.3056 22.8087 33.2525 22.8087 33.2048C22.8087 33.1095 22.7739 33.0436 22.6749 33.0436C22.5467 33.0436 22.3964 33.2048 22.3414 33.4998L22.2297 34.0917H21.8339L21.832 34.0935Z" fill="#666464"/>
<path d="M23.418 34.093L23.6159 33.0559H23.4418L23.4986 32.7553H23.6727L23.6818 32.6875C23.7093 32.5281 23.7735 32.3614 23.9072 32.2496C24.0135 32.1598 24.1564 32.125 24.2865 32.125C24.3818 32.125 24.4533 32.1378 24.4936 32.158L24.4258 32.4695C24.3946 32.4567 24.3507 32.4475 24.3012 32.4475C24.1729 32.4475 24.096 32.5574 24.0721 32.6912L24.0593 32.7572H24.3232L24.2664 33.0577H24.0043L23.8101 34.0948H23.4198L23.418 34.093Z" fill="#666464"/>
<path d="M25.6776 33.276C25.6776 33.7653 25.3405 34.1226 24.8787 34.1226C24.5415 34.1226 24.3125 33.9009 24.3125 33.5674C24.3125 33.1056 24.635 32.7227 25.1114 32.7227C25.4687 32.7227 25.6776 32.9682 25.6776 33.2742V33.276ZM24.7211 33.5637C24.7211 33.7195 24.7981 33.8239 24.9374 33.8239C25.1481 33.8239 25.2708 33.5069 25.2708 33.2797C25.2708 33.1569 25.2159 33.0268 25.0601 33.0268C24.8329 33.0268 24.7211 33.3567 24.7211 33.5637Z" fill="#666464"/>
<path d="M25.793 34.0935L25.9432 33.2983C25.9817 33.0967 25.9982 32.8732 26.011 32.7577H26.3519C26.3427 32.8475 26.339 32.9373 26.328 33.0307H26.3354C26.4325 32.853 26.5791 32.7266 26.7623 32.7266C26.788 32.7266 26.8118 32.7266 26.8356 32.7284L26.7605 33.1114C26.7403 33.1095 26.7183 33.1095 26.6963 33.1095C26.4453 33.1095 26.328 33.3331 26.2786 33.5951L26.1851 34.0917H25.793V34.0935Z" fill="#666464"/>
<path d="M26.8047 34.0915L26.9714 33.1899C27.0008 33.0213 27.0227 32.8766 27.0392 32.7556H27.3746L27.3489 32.9719H27.3544C27.4772 32.7996 27.6403 32.7227 27.8125 32.7227C28.0251 32.7227 28.1185 32.8583 28.1295 32.9774C28.2505 32.8051 28.4154 32.7227 28.5931 32.7227C28.7965 32.7227 28.9175 32.8564 28.9175 33.0836C28.9175 33.1386 28.9065 33.2449 28.8955 33.3127L28.7507 34.0915H28.3696L28.5033 33.3585C28.5143 33.3072 28.5217 33.2504 28.5217 33.1972C28.5217 33.1056 28.4795 33.0397 28.3915 33.0397C28.2596 33.0397 28.1295 33.2137 28.0764 33.4849L27.9646 34.0915H27.5853L27.7246 33.3567C27.7337 33.3017 27.741 33.2504 27.741 33.2046C27.741 33.1111 27.7117 33.0415 27.6164 33.0415C27.4808 33.0415 27.3397 33.2266 27.2939 33.4904L27.184 34.0915H26.8047Z" fill="#666464"/>
<path d="M29.9484 34.0917C29.952 34.0129 29.9594 33.9231 29.9649 33.8278H29.9594C29.8384 34.0477 29.6662 34.1229 29.5086 34.1229C29.2686 34.1229 29.1055 33.9378 29.1055 33.6574C29.1055 33.2085 29.406 32.7266 30.062 32.7266C30.2232 32.7266 30.3918 32.7577 30.5036 32.7925L30.3643 33.4907C30.3313 33.6629 30.3039 33.925 30.3094 34.0917H29.9484ZM30.0602 33.0344C30.029 33.0289 29.9942 33.0252 29.9539 33.0252C29.701 33.0252 29.5141 33.3368 29.5141 33.5841C29.5141 33.7161 29.5654 33.8058 29.6753 33.8058C29.7926 33.8058 29.9374 33.6721 29.9997 33.3441L30.0602 33.0344Z" fill="#666464"/>
<path d="M31.3439 32.3945L31.2761 32.7555H31.5638L31.5033 33.056H31.2193L31.1295 33.5105C31.1185 33.5618 31.1075 33.6332 31.1075 33.679C31.1075 33.745 31.1332 33.7908 31.2211 33.7908C31.2541 33.7908 31.2944 33.7908 31.3274 33.7835L31.2834 34.0932C31.2321 34.1133 31.1332 34.1243 31.0507 34.1243C30.8143 34.1243 30.7007 34.0034 30.7007 33.8348C30.7007 33.7652 30.708 33.69 30.7319 33.5856L30.8326 33.056H30.6641L30.7172 32.7555H30.8913L30.9408 32.5045L31.3439 32.3964V32.3945Z" fill="#666464"/>
<path d="M31.543 34.0943L31.7977 32.7585H32.1916L31.9369 34.0943H31.5448H31.543ZM32.0396 32.5917C31.9296 32.5917 31.8508 32.5148 31.8508 32.3993C31.8508 32.2656 31.9571 32.1758 32.078 32.1758C32.199 32.1758 32.2778 32.2527 32.2778 32.37C32.2778 32.5093 32.1715 32.5917 32.045 32.5917H32.0396Z" fill="#666464"/>
<path d="M33.674 33.276C33.674 33.7653 33.3386 34.1226 32.8769 34.1226C32.5379 34.1226 32.3125 33.9009 32.3125 33.5674C32.3125 33.1056 32.6332 32.7227 33.1096 32.7227C33.4669 32.7227 33.6758 32.9682 33.6758 33.2742L33.674 33.276ZM32.7175 33.5637C32.7175 33.7195 32.7926 33.8239 32.9337 33.8239C33.1444 33.8239 33.2672 33.5069 33.2672 33.2797C33.2672 33.1569 33.214 33.0268 33.0583 33.0268C32.8311 33.0268 32.7193 33.3567 32.7193 33.5637H32.7175Z" fill="#666464"/>
<path d="M33.7891 34.0935L33.9595 33.192C33.9943 33.0234 34.0126 32.8787 34.0328 32.7577H34.3791L34.3553 32.9794H34.3608C34.4854 32.8072 34.6503 32.7266 34.828 32.7266C35.0479 32.7266 35.1725 32.8603 35.1725 33.093C35.1725 33.1535 35.1615 33.2525 35.1505 33.3166L35.0021 34.0917H34.6063L34.7492 33.3514C34.7566 33.3056 34.7621 33.2525 34.7621 33.2048C34.7621 33.1095 34.7291 33.0436 34.6283 33.0436C34.5 33.0436 34.3498 33.2048 34.2948 33.4998L34.183 34.0917H33.7891V34.0935Z" fill="#666464"/>
<path d="M35.9228 33.6668C36.0309 33.7328 36.1867 33.7841 36.3571 33.7841C36.511 33.7841 36.6503 33.7126 36.6503 33.5715C36.6503 33.4653 36.5715 33.3993 36.4011 33.3095C36.2069 33.2051 36.0199 33.0603 36.0199 32.8239C36.0199 32.4483 36.3443 32.2266 36.7437 32.2266C36.9673 32.2266 37.0992 32.276 37.178 32.3163L37.0553 32.6444C36.9948 32.6114 36.8647 32.5619 36.7126 32.5656C36.5275 32.5656 36.4322 32.6553 36.4322 32.758C36.4322 32.8606 36.5458 32.932 36.6998 33.02C36.9233 33.1354 37.0644 33.2857 37.0644 33.5056C37.0644 33.916 36.7254 34.1268 36.3168 34.1268C36.0584 34.1249 35.8752 34.059 35.7891 33.9967L35.9192 33.6705L35.9228 33.6668Z" fill="#666464"/>
<path d="M38.3569 34.0184C38.2011 34.0972 38.0069 34.1247 37.8566 34.1247C37.4773 34.1247 37.2812 33.9103 37.2812 33.5585C37.2812 33.1498 37.5763 32.7266 38.0582 32.7266C38.3294 32.7266 38.5236 32.8787 38.5236 33.1297C38.5236 33.4687 38.192 33.5915 37.6551 33.5768C37.6551 33.6153 37.6716 33.6757 37.699 33.7124C37.7503 33.7802 37.842 33.8168 37.9556 33.8168C38.1003 33.8168 38.2231 33.7839 38.3294 33.7326L38.3569 34.0184ZM38.0087 33.0142C37.8255 33.0142 37.7192 33.1682 37.6917 33.2909C37.9996 33.2928 38.1535 33.2525 38.1535 33.126C38.1535 33.0601 38.0985 33.0142 38.0087 33.0142Z" fill="#666464"/>
<path d="M39.6059 34.0496C39.5216 34.0917 39.3842 34.121 39.2266 34.121C38.8968 34.121 38.6641 33.9195 38.6641 33.575C38.6641 33.0985 39.0287 32.7266 39.5363 32.7266C39.6499 32.7266 39.7488 32.7486 39.8093 32.7705L39.7104 33.0747C39.6646 33.0564 39.6096 33.0436 39.5308 33.0436C39.2523 33.0436 39.0764 33.2799 39.0764 33.531C39.0764 33.7142 39.1936 33.8077 39.3384 33.8077C39.4538 33.8077 39.5363 33.7802 39.6041 33.7527V34.0496H39.6059Z" fill="#666464"/>
<path d="M41.2516 32.7557L41.083 33.6573C41.0501 33.8277 41.0262 33.9725 41.0116 34.0916H40.6634L40.6891 33.8753L40.6836 33.8717C40.5461 34.0458 40.3867 34.1209 40.2255 34.1209C40.0093 34.1209 39.8828 33.9999 39.8828 33.7471C39.8828 33.6756 39.8901 33.5931 39.9085 33.4997L40.0514 32.7539H40.4435L40.3079 33.4704C40.2969 33.5327 40.2896 33.5986 40.2896 33.6463C40.2896 33.7324 40.3244 33.8002 40.4234 33.8002C40.5571 33.8002 40.6927 33.6371 40.744 33.3733L40.8613 32.7539H41.2516V32.7557Z" fill="#666464"/>
<path d="M41.332 34.0935L41.4823 33.2983C41.5208 33.0967 41.5373 32.8732 41.5519 32.7577H41.8927C41.8854 32.8475 41.8799 32.9373 41.8689 33.0307H41.8781C41.9734 32.853 42.1218 32.7266 42.3032 32.7266C42.327 32.7266 42.3527 32.7266 42.3765 32.7284L42.3014 33.1114C42.283 33.1095 42.2611 33.1095 42.2391 33.1095C41.988 33.1095 41.8708 33.3331 41.8213 33.5951L41.7278 34.0917H41.3357L41.332 34.0935Z" fill="#666464"/>
<path d="M42.3438 34.0943L42.5985 32.7585H42.9924L42.7377 34.0943H42.3438ZM42.8385 32.5917C42.7304 32.5917 42.6516 32.5148 42.6516 32.3993C42.6516 32.2656 42.7579 32.1758 42.877 32.1758C42.9961 32.1758 43.0767 32.2527 43.0767 32.37C43.0767 32.5093 42.9704 32.5917 42.8458 32.5917H42.8403H42.8385Z" fill="#666464"/>
<path d="M43.822 32.3945L43.7524 32.7555H44.0401L43.9796 33.056H43.6956L43.6058 33.5105C43.5948 33.5618 43.5838 33.6332 43.5838 33.679C43.5838 33.745 43.6095 33.7908 43.6993 33.7908C43.7304 33.7908 43.7726 33.7908 43.8037 33.7835L43.7597 34.0932C43.7084 34.1133 43.6095 34.1243 43.527 34.1243C43.2888 34.1243 43.177 34.0034 43.177 33.8348C43.177 33.7652 43.1844 33.69 43.2064 33.5856L43.3071 33.056H43.1367L43.1917 32.7555H43.3639L43.4116 32.5045L43.8165 32.3964L43.822 32.3945Z" fill="#666464"/>
<path d="M44.5385 32.7578L44.621 33.3405C44.6393 33.4798 44.654 33.5751 44.665 33.6594H44.6705C44.6998 33.5787 44.7309 33.4926 44.7877 33.3478L45.0314 32.7578H45.4456L44.9673 33.7198C44.7914 34.0753 44.632 34.3154 44.4542 34.4821C44.2985 34.6287 44.1134 34.6983 44.0255 34.7112L43.9375 34.3722C44.0016 34.3538 44.0878 34.3209 44.1647 34.2677C44.2545 34.2054 44.3315 34.1248 44.3828 34.0368C44.3938 34.0148 44.3938 33.9983 44.3883 33.9709L44.1281 32.7578H44.5404H44.5385Z" fill="#666464"/>
<path d="M25.7238 36.4705L25.8356 35.71C25.8649 35.5103 25.9052 35.2574 25.9584 34.9917H25.9492C25.8484 35.2299 25.733 35.4828 25.6322 35.6862L25.2547 36.4393H24.9487L24.8846 35.6935C24.8681 35.492 24.8553 35.2391 24.8424 34.9917H24.8369C24.7838 35.2354 24.7307 35.5103 24.6848 35.71L24.5016 36.4705H24.1406L24.6024 34.6289H25.1301L25.1869 35.3289C25.1979 35.5011 25.2162 35.7119 25.2199 35.9153H25.2309C25.3024 35.71 25.4013 35.4938 25.4801 35.3289L25.8228 34.6289H26.3542L26.105 36.4705H25.7238Z" fill="#666464"/>
<path d="M27.2861 36.4685C27.2898 36.3897 27.2971 36.3 27.3026 36.2028H27.2971C27.1744 36.4246 27.004 36.4979 26.8464 36.4979C26.6063 36.4979 26.4414 36.311 26.4414 36.0324C26.4414 35.5817 26.7419 35.1016 27.3979 35.1016C27.5592 35.1016 27.7296 35.1309 27.8414 35.1675L27.7021 35.8657C27.6691 36.0379 27.6416 36.3 27.6471 36.4667H27.2861V36.4685ZM27.3979 35.4112C27.3686 35.4057 27.332 35.4002 27.2916 35.4002C27.0369 35.4002 26.8537 35.7118 26.8537 35.961C26.8537 36.0911 26.905 36.1827 27.0131 36.1827C27.1304 36.1827 27.277 36.0489 27.3375 35.7209L27.3979 35.4112Z" fill="#666464"/>
<path d="M27.9315 36.4706L28.1019 35.5691C28.1367 35.3987 28.1551 35.2557 28.1752 35.1348H28.5216L28.4977 35.3565H28.5032C28.6278 35.1843 28.7927 35.1055 28.9705 35.1055C29.1904 35.1055 29.315 35.2392 29.315 35.4719C29.315 35.5306 29.304 35.6295 29.293 35.6955L29.1446 36.4724H28.7488L28.8899 35.7322C28.899 35.6863 28.9027 35.635 28.9027 35.5856C28.9027 35.4903 28.8697 35.4243 28.7689 35.4243C28.6407 35.4243 28.4904 35.5856 28.4354 35.8806L28.3237 36.4743H27.9297L27.9315 36.4706Z" fill="#666464"/>
<path d="M30.3486 36.4685C30.3523 36.3897 30.3596 36.3 30.3651 36.2028H30.3596C30.2369 36.4246 30.0646 36.4979 29.9089 36.4979C29.667 36.4979 29.5039 36.311 29.5039 36.0324C29.5039 35.5817 29.8044 35.1016 30.4604 35.1016C30.6217 35.1016 30.7921 35.1309 30.902 35.1675L30.7628 35.8657C30.7298 36.0379 30.7023 36.3 30.7078 36.4667H30.3468L30.3486 36.4685ZM30.4604 35.4112C30.4311 35.4057 30.3945 35.4002 30.3541 35.4002C30.0994 35.4002 29.9144 35.7118 29.9144 35.961C29.9144 36.0911 29.9657 36.1827 30.0756 36.1827C30.1929 36.1827 30.3377 36.0489 30.4 35.7209L30.4604 35.4112Z" fill="#666464"/>
<path d="M31.0721 36.6557C31.1472 36.6997 31.3085 36.729 31.4221 36.729C31.62 36.729 31.7629 36.6429 31.8215 36.3735L31.8435 36.2599H31.838C31.7336 36.3973 31.6145 36.4596 31.4551 36.4596C31.1912 36.4596 31.0299 36.2434 31.0281 35.9814C31.0244 35.5416 31.3415 35.1055 31.9242 35.1055C32.1129 35.1055 32.2778 35.1403 32.4189 35.1989L32.2155 36.3002C32.1697 36.5457 32.0927 36.7638 31.9352 36.8921C31.7904 37.0057 31.5962 37.0423 31.4184 37.0423C31.2407 37.0423 31.0739 37.0093 30.9805 36.9562L31.0721 36.6557ZM31.9901 35.4298C31.9608 35.417 31.9022 35.406 31.8472 35.406C31.6108 35.406 31.4386 35.6699 31.4386 35.9227C31.4386 36.0583 31.499 36.1554 31.6181 36.1554C31.7482 36.1554 31.8747 36.0107 31.9187 35.7871L31.9865 35.428L31.9901 35.4298Z" fill="#666464"/>
<path d="M33.6225 36.3916C33.4667 36.4704 33.2725 36.4979 33.1223 36.4979C32.7411 36.4979 32.5469 36.2816 32.5469 35.9316C32.5469 35.5248 32.8401 35.1016 33.3238 35.1016C33.595 35.1016 33.7892 35.2537 33.7892 35.5029C33.7892 35.8419 33.4576 35.9646 32.9207 35.95C32.9225 35.9884 32.9372 36.0489 32.9647 36.0874C33.016 36.1552 33.1058 36.19 33.2212 36.19C33.366 36.19 33.4906 36.157 33.5968 36.1057L33.6243 36.3879L33.6225 36.3916ZM33.2762 35.3892C33.0911 35.3892 32.9867 35.5413 32.9592 35.6641C33.2688 35.6678 33.4209 35.6256 33.4209 35.501C33.4209 35.4351 33.366 35.3892 33.2762 35.3892Z" fill="#666464"/>
<path d="M33.8711 36.4683L34.0378 35.5668C34.0672 35.3963 34.0892 35.2534 34.1075 35.1325H34.4428L34.4171 35.3469H34.4226C34.5454 35.1746 34.7085 35.0977 34.8807 35.0977C35.0951 35.0977 35.1868 35.2351 35.1996 35.3524C35.3187 35.1801 35.4854 35.0977 35.6614 35.0977C35.8648 35.0977 35.9875 35.2314 35.9875 35.4586C35.9875 35.5136 35.9765 35.6199 35.9655 35.6895L35.8208 36.4683H35.4378L35.5734 35.7353C35.5826 35.684 35.5917 35.6254 35.5917 35.5741C35.5917 35.4806 35.5514 35.4165 35.4616 35.4165C35.3315 35.4165 35.1996 35.5906 35.1464 35.8599L35.0347 36.4665H34.6535L34.7928 35.7317C34.802 35.6767 34.8093 35.6254 34.8093 35.5796C34.8093 35.4861 34.78 35.4165 34.6847 35.4165C34.5491 35.4165 34.408 35.6016 34.3622 35.8654L34.2522 36.4665H33.8729L33.8711 36.4683Z" fill="#666464"/>
<path d="M37.2571 36.3916C37.1014 36.4704 36.9072 36.4979 36.7569 36.4979C36.3758 36.4979 36.1797 36.2816 36.1797 35.9316C36.1797 35.5248 36.4747 35.1016 36.9585 35.1016C37.2278 35.1016 37.4221 35.2537 37.4221 35.5029C37.4221 35.8419 37.0922 35.9646 36.5535 35.95C36.5553 35.9884 36.57 36.0489 36.5975 36.0874C36.6488 36.1552 36.7404 36.19 36.8558 36.19C37.0006 36.19 37.1234 36.157 37.2297 36.1057L37.2571 36.3879V36.3916ZM36.909 35.3892C36.7276 35.3892 36.6195 35.5413 36.592 35.6641C36.8998 35.6678 37.0537 35.6256 37.0537 35.501C37.0537 35.4351 36.9988 35.3892 36.909 35.3892Z" fill="#666464"/>
<path d="M37.5057 36.4706L37.6761 35.5691C37.7091 35.3987 37.7311 35.2557 37.7494 35.1348H38.0958L38.072 35.3565H38.0774C38.2039 35.1843 38.367 35.1055 38.5447 35.1055C38.7628 35.1055 38.8892 35.2392 38.8892 35.4719C38.8892 35.5306 38.8782 35.6295 38.8672 35.6955L38.7188 36.4724H38.323L38.4641 35.7322C38.4714 35.6863 38.4769 35.635 38.4769 35.5856C38.4769 35.4903 38.4439 35.4243 38.3431 35.4243C38.2149 35.4243 38.0646 35.5856 38.0096 35.8806L37.8979 36.4743H37.5039L37.5057 36.4706Z" fill="#666464"/>
<path d="M39.797 34.7695L39.7292 35.1305H40.0169L39.9564 35.431H39.6724L39.5826 35.8855C39.5716 35.9386 39.5606 36.0082 39.5606 36.054C39.5606 36.12 39.5881 36.1658 39.6761 36.1658C39.7091 36.1658 39.7494 36.1658 39.7823 36.1603L39.7384 36.47C39.6871 36.4902 39.5881 36.4993 39.5057 36.4993C39.2674 36.4993 39.1557 36.3784 39.1557 36.2098C39.1557 36.1383 39.1648 36.065 39.185 35.9624L39.2858 35.431H39.1172L39.1703 35.1305H39.3426L39.392 34.8795L39.7952 34.7714L39.797 34.7695Z" fill="#666464"/>
<path d="M27.9874 38.4226C28.0973 38.4885 28.2513 38.5398 28.4217 38.5398C28.5738 38.5398 28.713 38.4702 28.713 38.3273C28.713 38.221 28.6342 38.155 28.4638 38.0653C28.2696 37.9626 28.0845 37.8179 28.0845 37.5778C28.0845 37.204 28.407 36.9805 28.8083 36.9805C29.0319 36.9805 29.1638 37.0299 29.2426 37.0703L29.1198 37.3983C29.0594 37.3653 28.9293 37.3176 28.779 37.3195C28.5921 37.3195 28.4968 37.4093 28.4968 37.51C28.4968 37.6181 28.6086 37.6859 28.7643 37.7739C28.9879 37.8893 29.1308 38.0396 29.1308 38.2613C29.1308 38.6718 28.7918 38.8807 28.3832 38.8807C28.1248 38.8788 27.9434 38.8129 27.8555 38.7506L27.9856 38.4262L27.9874 38.4226Z" fill="#666464"/>
<path d="M29.7182 37.5117L29.8007 38.0944C29.819 38.2337 29.8337 38.329 29.8446 38.4133H29.8501C29.8813 38.3308 29.9106 38.2465 29.9674 38.1018L30.2111 37.5117H30.6271L30.1488 38.4737C29.9711 38.8292 29.8117 39.0693 29.6358 39.236C29.48 39.3844 29.2931 39.4522 29.2051 39.4669L29.1172 39.1279C29.1795 39.1096 29.2674 39.0766 29.3444 39.0235C29.4342 38.9612 29.5112 38.8805 29.5643 38.7907C29.5753 38.7687 29.5753 38.7541 29.5698 38.7266L29.3078 37.5136H29.7219L29.7182 37.5117Z" fill="#666464"/>
<path d="M30.6169 38.4956C30.6939 38.5341 30.8349 38.5891 30.965 38.5891C31.0768 38.5891 31.1336 38.5341 31.1336 38.47C31.1336 38.4058 31.0897 38.3564 30.9669 38.2977C30.813 38.2208 30.6865 38.109 30.6865 37.9422C30.6865 37.6637 30.9284 37.4805 31.2729 37.4805C31.4286 37.4805 31.5514 37.5135 31.6174 37.5483L31.5221 37.8268C31.4671 37.803 31.37 37.77 31.2564 37.77C31.1501 37.77 31.0823 37.814 31.0823 37.8891C31.0823 37.9441 31.1355 37.9899 31.2436 38.0412C31.3902 38.1163 31.5441 38.2226 31.5441 38.4077C31.5441 38.7137 31.2839 38.8804 30.9302 38.8786C30.7617 38.8749 30.6022 38.8328 30.5234 38.7741L30.6187 38.4993L30.6169 38.4956Z" fill="#666464"/>
<path d="M32.459 37.1464L32.3912 37.5055H32.6771L32.6166 37.806H32.3326L32.2428 38.2586C32.2318 38.3118 32.2226 38.3814 32.2226 38.429C32.2226 38.4932 32.2483 38.5408 32.3362 38.5408C32.3692 38.5408 32.4114 38.5408 32.4425 38.5353L32.3985 38.845C32.3472 38.8633 32.2483 38.8743 32.1658 38.8743C31.9276 38.8743 31.8158 38.7534 31.8158 38.5848C31.8158 38.5133 31.825 38.44 31.847 38.3356L31.9478 37.806H31.7773L31.8323 37.5055H32.0046L32.054 37.2545L32.459 37.1445V37.1464Z" fill="#666464"/>
<path d="M33.7571 38.7705C33.5996 38.8511 33.4072 38.8768 33.2569 38.8768C32.8776 38.8768 32.6797 38.6605 32.6797 38.3124C32.6797 37.9056 32.9747 37.4805 33.4585 37.4805C33.7278 37.4805 33.9221 37.6344 33.9221 37.8818C33.9221 38.2208 33.5922 38.3435 33.0535 38.3307C33.0553 38.3692 33.0682 38.4297 33.0975 38.4681C33.1488 38.5359 33.2404 38.5707 33.354 38.5707C33.4969 38.5707 33.6215 38.5378 33.7278 38.4865L33.7571 38.7686V38.7705ZM33.409 37.7682C33.2239 37.7682 33.1195 37.9202 33.092 38.0448C33.3998 38.0485 33.5537 38.0064 33.5537 37.8818C33.5537 37.8158 33.4988 37.7682 33.409 37.7682Z" fill="#666464"/>
<path d="M34.0037 38.8454L34.1704 37.9438C34.2016 37.7752 34.2217 37.6305 34.2382 37.5095H34.5735L34.5497 37.7258H34.5534C34.6762 37.5535 34.8411 37.4766 35.0115 37.4766C35.224 37.4766 35.3175 37.614 35.3285 37.7313C35.4494 37.559 35.6143 37.4766 35.7903 37.4766C35.9955 37.4766 36.1146 37.6103 36.1146 37.8357C36.1146 37.8907 36.1036 37.997 36.0944 38.0666L35.9497 38.8454H35.5667L35.7005 38.1124C35.7115 38.0593 35.7188 38.0025 35.7188 37.9512C35.7188 37.8577 35.6785 37.7936 35.5887 37.7936C35.4568 37.7936 35.3248 37.9676 35.2754 38.2388L35.1636 38.8454H34.7843L34.9235 38.1106C34.9309 38.0556 34.94 38.0025 34.94 37.9567C34.94 37.865 34.9107 37.7917 34.8136 37.7917C34.6798 37.7917 34.5369 37.9768 34.4911 38.2425L34.3811 38.8435H34L34.0037 38.8454Z" fill="#666464"/>
<path d="M38.3754 6.67578H37.1367V7.70559C37.1367 7.85585 37.2192 7.93098 37.3823 7.93098H38.6045V6.89933C38.61 6.75091 38.5348 6.67578 38.3754 6.67578ZM38.1226 7.63046H37.6754C37.6278 7.63046 37.604 7.60481 37.604 7.559V6.97813H38.0657C38.1061 6.97813 38.1226 6.99828 38.1226 7.04043V7.63046Z" fill="#666464"/>
<path d="M38.2595 8.10156V8.36909H37.5101V8.66961H38.2082C38.1038 8.89683 37.8436 9.03975 37.4258 9.09839L37.5467 9.38241C37.7629 9.36042 37.9627 9.30912 38.1368 9.22666C38.32 9.14054 38.4446 9.03609 38.5106 8.91332C38.5894 9.03242 38.7195 9.13687 38.9064 9.22483C39.0786 9.30729 39.2564 9.35676 39.4378 9.37508L39.5624 9.09473C39.1647 9.03609 38.9082 8.89499 38.7891 8.67144H39.4836V8.37093H38.7305V8.10339H38.2632L38.2595 8.10156Z" fill="#666464"/>
<path d="M39.4342 6.63672H38.9688V8.14845H39.4342V6.63672Z" fill="#666464"/>
<path d="M27.1883 9.24166C27.3276 9.12438 27.4009 8.9723 27.4009 8.78173C27.4009 8.59116 27.3294 8.4354 27.1883 8.31996C27.0417 8.19719 26.8401 8.13672 26.5873 8.13672C26.3344 8.13672 26.1347 8.19719 25.9881 8.31996C25.847 8.4354 25.7773 8.58932 25.7773 8.78173C25.7773 8.97413 25.8488 9.12622 25.9917 9.24532C26.1365 9.36443 26.3344 9.42307 26.5873 9.42307C26.8401 9.42307 27.0417 9.3626 27.1883 9.24166ZM26.2299 8.77989C26.2299 8.68278 26.2629 8.60398 26.3271 8.54351C26.3912 8.48304 26.481 8.45372 26.5854 8.45372C26.6899 8.45372 26.7815 8.48304 26.8475 8.54351C26.9134 8.60398 26.9464 8.68278 26.9464 8.77989C26.9464 8.87701 26.9134 8.95214 26.8475 9.01261C26.7815 9.07308 26.6935 9.1024 26.5854 9.1024C26.4773 9.1024 26.3912 9.07308 26.3271 9.01261C26.2611 8.95214 26.2299 8.87518 26.2299 8.77989Z" fill="#666464"/>
<path d="M26.9511 7.1741H26.4453V7.46728H26.9511V8.12695H27.4128V6.64453H26.9511V7.1741Z" fill="#666464"/>
<path d="M24.9883 7.86525L25.177 8.13645C25.3346 8.07781 25.4757 7.99352 25.5985 7.88358C25.7231 7.77363 25.8019 7.66369 25.8404 7.55008C25.8972 7.66186 25.9851 7.76447 26.1042 7.85792C26.2215 7.95321 26.3479 8.01918 26.4817 8.05949L26.6576 7.79562C26.2655 7.63254 26.0694 7.37417 26.0694 7.01135V6.98387H26.577V6.67969H25.0854V6.98387H25.593V7.01685C25.593 7.40166 25.3932 7.68385 24.9901 7.86342L24.9883 7.86525Z" fill="#666464"/>
<path d="M27.8534 8.51807V8.82042H30.4902V8.51807H29.4018V8.09662H29.9075C30.0816 8.09662 30.1641 8.01416 30.1641 7.84741V6.6875H29.7005V7.06864H28.6395V6.6875H28.1741V7.84741C28.1741 8.01233 28.2602 8.09662 28.4343 8.09662H28.9363V8.51807H27.8516H27.8534ZM28.7311 7.79244C28.6706 7.79244 28.6413 7.76495 28.6413 7.70998V7.36915H29.7023V7.70998C29.7023 7.76495 29.673 7.79244 29.6125 7.79244H28.7293H28.7311Z" fill="#666464"/>
<path d="M30.7362 8.51807V8.82042H33.373V8.51807H32.2864V8.09662H32.7903C32.9626 8.09662 33.0505 8.01416 33.0505 7.84741V6.6875H32.5851V7.06864H31.5223V6.6875H31.0587V7.84741C31.0587 8.01233 31.143 8.09662 31.3171 8.09662H31.8173V8.51807H30.7344H30.7362ZM31.6139 7.79244C31.5553 7.79244 31.5241 7.76495 31.5241 7.70998V7.36915H32.5869V7.70998C32.5869 7.76495 32.5558 7.79244 32.4972 7.79244H31.6139Z" fill="#666464"/>
<path d="M33.6211 8.51854V8.82455H36.2579V8.51854H35.1713V8.31514C35.3619 8.28399 35.5121 8.21436 35.6147 8.10808C35.7192 8.0018 35.7723 7.86987 35.7723 7.71228C35.7723 7.57485 35.732 7.45758 35.6514 7.35679H36.0564V7.05078H33.8172V7.35679H34.2276C34.1507 7.45758 34.1103 7.57485 34.1103 7.71228C34.1103 7.86987 34.1635 8.0018 34.2661 8.10808C34.3687 8.21436 34.5171 8.28399 34.7077 8.31514V8.51854H33.6211ZM34.6711 7.94316C34.6033 7.88269 34.5703 7.8039 34.5703 7.71045C34.5703 7.61699 34.6051 7.5382 34.6711 7.4759C34.7407 7.4136 34.8286 7.38245 34.9404 7.38245C35.0522 7.38245 35.1383 7.4136 35.2061 7.4759C35.2739 7.5382 35.3087 7.61516 35.3087 7.71045C35.3087 7.80573 35.2758 7.88269 35.2061 7.945C35.1383 8.0073 35.0504 8.03845 34.9404 8.03845C34.8305 8.03845 34.7407 8.0073 34.6711 7.94316Z" fill="#666464"/>
<path d="M35.4922 6.57422H34.4258V6.8784H35.4922V6.57422Z" fill="#666464"/>
<path d="M16.2176 12.8995V10.1875H15.8053V11.2411H15.5323V10.1875H15.1328V12.8665H15.5323V11.5453H15.8053V12.8995H16.2176Z" fill="#666464"/>
<path d="M13.7284 12.0304L13.9684 12.2741C14.3148 12.023 14.5658 11.7537 14.7216 11.4642C14.8773 11.1746 14.9543 10.8375 14.9543 10.4453C14.9543 10.3665 14.9378 10.3134 14.9066 10.2823C14.8773 10.2529 14.8205 10.2383 14.738 10.2383H13.8017V10.5425H14.4155C14.4705 10.5425 14.498 10.5699 14.498 10.6213C14.498 11.1563 14.2396 11.6254 13.7266 12.0322L13.7284 12.0304Z" fill="#666464"/>
<path d="M19.0571 10.1875H18.5898V12.0401H19.0571V10.1875Z" fill="#666464"/>
<path d="M18.0673 11.4789C18.2121 11.3414 18.2835 11.1582 18.2835 10.931C18.2835 10.7038 18.2121 10.5223 18.0673 10.3867C17.9244 10.2493 17.7301 10.1797 17.4864 10.1797C17.2427 10.1797 17.0503 10.2475 16.9037 10.3867C16.759 10.5223 16.6875 10.7056 16.6875 10.931C16.6875 11.1564 16.759 11.3414 16.9037 11.4789C17.0503 11.6163 17.2446 11.6841 17.4864 11.6841C17.7283 11.6841 17.9244 11.6163 18.0673 11.4789ZM17.1401 10.931C17.1401 10.8137 17.1713 10.7147 17.2354 10.6378C17.2995 10.5627 17.3838 10.5223 17.4864 10.5223C17.589 10.5223 17.6752 10.5627 17.7393 10.6378C17.8053 10.7166 17.8346 10.8137 17.8346 10.931C17.8346 11.0482 17.8053 11.149 17.7393 11.2278C17.6752 11.3048 17.5909 11.3433 17.4864 11.3433C17.382 11.3433 17.2977 11.3048 17.2354 11.2278C17.1713 11.149 17.1401 11.0519 17.1401 10.931Z" fill="#666464"/>
<path d="M17.3803 12.8575H19.0569V12.5497H17.7156C17.6588 12.5497 17.6295 12.5258 17.6295 12.4764V11.9102H17.1641V12.6541C17.1641 12.7879 17.2355 12.8538 17.3803 12.8538V12.8575Z" fill="#666464"/>
<path d="M20.4587 11.8473C20.3176 11.9627 20.2461 12.1167 20.2461 12.3072C20.2461 12.4978 20.3194 12.6536 20.4623 12.7727C20.6052 12.8918 20.805 12.9522 21.0578 12.9522C21.3107 12.9522 21.5105 12.8918 21.657 12.7708C21.7963 12.6536 21.8678 12.4996 21.8678 12.3091C21.8678 12.1185 21.7963 11.9627 21.657 11.8491C21.5105 11.7264 21.3107 11.6641 21.0578 11.6641C20.805 11.6641 20.6034 11.7264 20.4587 11.8491V11.8473ZM21.4188 12.3072C21.4188 12.4044 21.3858 12.4813 21.3199 12.5418C21.2521 12.6004 21.166 12.6316 21.0578 12.6316C20.9497 12.6316 20.8636 12.6004 20.7958 12.5418C20.7298 12.4813 20.6987 12.4044 20.6987 12.3072C20.6987 12.2101 20.7298 12.1332 20.7958 12.0727C20.8618 12.0122 20.9479 11.9811 21.0578 11.9811C21.1678 11.9811 21.2521 12.0122 21.3199 12.0727C21.3858 12.1332 21.4188 12.2101 21.4188 12.3072Z" fill="#666464"/>
<path d="M21.8816 10.1758H21.4198V10.7017H20.9141V10.9967H21.4198V11.6545H21.8816V10.1758Z" fill="#666464"/>
<path d="M19.455 11.3947L19.6437 11.6659C19.8013 11.6054 19.9424 11.5229 20.0651 11.413C20.1861 11.3049 20.2667 11.1949 20.3089 11.0795C20.3638 11.1913 20.4536 11.2939 20.5691 11.3892C20.6882 11.4826 20.8128 11.5486 20.9465 11.5907L21.1224 11.325C20.7285 11.1638 20.5324 10.9036 20.5324 10.5426V10.5133H21.0382V10.2109H19.5502V10.5133H20.0578V10.5481C20.0578 10.9311 19.8581 11.2133 19.4531 11.3928L19.455 11.3947Z" fill="#666464"/>
<path d="M22.324 12.0475V12.3517H24.959V12.0475H23.8724V11.626H24.3763C24.5503 11.626 24.6365 11.5436 24.6365 11.3787V10.2188H24.171V10.5999H23.1101V10.2188H22.6428V11.3787C22.6428 11.5436 22.7308 11.626 22.903 11.626H23.4051V12.0475H22.3203H22.324ZM23.1999 11.3237C23.1412 11.3237 23.1119 11.2962 23.1119 11.2394V10.8986H24.1729V11.2394C24.1729 11.2944 24.1417 11.3237 24.0849 11.3237H23.1999Z" fill="#666464"/>
<path d="M27.0713 10.5999H26.0085V10.2188H25.5449V11.3787C25.5449 11.5436 25.6292 11.626 25.8033 11.626H26.3054V12.0475H25.2188V12.3517H27.8556V12.0475H26.769V11.626H27.2729C27.447 11.626 27.5312 11.5436 27.5312 11.3787V10.2188H27.0695V10.5999H27.0713ZM27.0713 11.2394C27.0713 11.2944 27.0402 11.3237 26.9797 11.3237H26.1001C26.0397 11.3237 26.0103 11.2962 26.0103 11.2394V10.8986H27.0731V11.2394H27.0713Z" fill="#666464"/>
<path d="M28.2997 10.8841H28.7065C28.6277 10.9849 28.5929 11.1022 28.5929 11.2396C28.5929 11.3972 28.646 11.5291 28.7505 11.6354C28.8531 11.7417 28.9997 11.8113 29.1939 11.8443L29.1884 12.0459H28.1055V12.3519H30.7423V12.0459H29.6557V11.8443C29.8463 11.8113 29.9947 11.7417 30.0991 11.6354C30.2036 11.5291 30.2549 11.3954 30.2549 11.2396C30.2549 11.1022 30.2146 10.9849 30.1358 10.8841H30.5407V10.5781H28.3015V10.8841H28.2997ZM29.1554 11.0051C29.2214 10.9428 29.3094 10.9116 29.4248 10.9116C29.5311 10.9116 29.619 10.9428 29.6905 11.0051C29.7565 11.0674 29.7913 11.1462 29.7913 11.2396C29.7913 11.3331 29.7565 11.4137 29.6905 11.4742C29.619 11.5365 29.5311 11.5676 29.4248 11.5676C29.3094 11.5676 29.2214 11.5365 29.1554 11.4742C29.0858 11.4119 29.0547 11.3331 29.0547 11.2396C29.0547 11.1462 29.0858 11.0655 29.1554 11.0051Z" fill="#666464"/>
<path d="M32.5769 12.4904V11.9883H32.1133V12.6571C32.1133 12.7945 32.1829 12.866 32.324 12.866H34.1198V12.5618H32.6557C32.6044 12.5618 32.5769 12.538 32.5769 12.4904Z" fill="#666464"/>
<path d="M33.2918 11.2133V10.4345C33.3028 10.2861 33.2332 10.2109 33.0793 10.2109H31.8516V10.5133H32.7348C32.7934 10.5133 32.8227 10.5481 32.8227 10.6177V11.2114H33.2937L33.2918 11.2133Z" fill="#666464"/>
<path d="M39.4313 12.8401V10.1758H39.0373V11.0828H38.625V11.3852H39.0373V12.8401H39.4313Z" fill="#666464"/>
<path d="M37.8383 11.5435C37.7614 11.7414 37.6239 11.9209 37.4297 12.0822L37.6697 12.3094C37.787 12.2306 37.8951 12.128 37.9904 11.9997C38.0894 11.8715 38.1498 11.7469 38.1773 11.6259C38.2121 11.7487 38.2781 11.8733 38.3752 11.9997C38.4668 12.128 38.5658 12.2251 38.6666 12.2929L38.9029 12.0657C38.5603 11.7945 38.3899 11.4005 38.3899 10.8783V10.8563H38.8315V10.543H37.5121V10.8563H37.9538V10.8783C37.9538 11.144 37.9171 11.3657 37.842 11.5435H37.8383Z" fill="#666464"/>
<path d="M40.0003 10.1758H39.5898V12.8731H40.0003V10.1758Z" fill="#666464"/>
<path d="M42.8574 10.1758H42.4414V12.8731H42.8574V10.1758Z" fill="#666464"/>
<path d="M40.3612 12.0281L40.5976 12.2718C40.8156 12.1106 40.9897 11.9346 41.1345 11.7496H41.8766V12.8362H42.2742V10.1719H41.8766V10.6666H41.5669C41.5743 10.5878 41.5798 10.5054 41.5798 10.4211C41.5798 10.3423 41.5633 10.2873 41.5321 10.258C41.5028 10.2287 41.446 10.2122 41.3635 10.2122H40.4363V10.5145H41.0502C41.107 10.5145 41.1308 10.5402 41.1308 10.5933C41.1308 11.1449 40.8743 11.6231 40.3594 12.0244L40.3612 12.0281ZM41.5193 10.9726H41.8784V11.4472H41.3324C41.4148 11.2951 41.4826 11.1376 41.5193 10.9726Z" fill="#666464"/>
<path d="M44.6955 10.1641C44.4537 10.1641 44.2613 10.2337 44.1165 10.3693C43.9717 10.5067 43.8984 10.6863 43.8984 10.9117C43.8984 11.1371 43.9699 11.3203 44.1165 11.4577C44.2594 11.5952 44.4537 11.6611 44.6955 11.6611C44.9374 11.6611 45.1316 11.5952 45.2746 11.4577C45.4175 11.3203 45.4908 11.1389 45.4908 10.9117C45.4908 10.6845 45.4175 10.5067 45.2746 10.3693C45.1298 10.2337 44.9374 10.1641 44.6955 10.1641ZM44.9484 11.2067C44.8861 11.2837 44.8018 11.3221 44.6955 11.3221C44.5893 11.3221 44.5086 11.2837 44.4463 11.2067C44.3822 11.1297 44.351 11.0326 44.351 10.9135C44.351 10.7944 44.3822 10.6991 44.4463 10.6222C44.5105 10.547 44.5911 10.5067 44.6955 10.5067C44.8 10.5067 44.8861 10.5452 44.9484 10.6222C45.0125 10.6991 45.0437 10.7962 45.0437 10.9135C45.0437 11.0308 45.0107 11.1316 44.9484 11.2067Z" fill="#666464"/>
<path d="M44.8425 12.4493V11.8867H44.3789V12.6288C44.3789 12.7608 44.4485 12.8286 44.5915 12.8286H46.2608V12.5226H44.9268C44.87 12.5226 44.8425 12.4987 44.8425 12.4511V12.4493Z" fill="#666464"/>
<path d="M46.2586 10.1758H45.7969V12.0192H46.2586V10.1758Z" fill="#666464"/>
<path d="M46.918 10.9516L47.0059 11.2375C47.235 11.2136 47.4439 11.1623 47.6363 11.0817C47.8287 11.0029 47.9569 10.9076 48.0266 10.7995C48.1035 10.9095 48.2428 11.0066 48.4444 11.0945C48.6404 11.177 48.8347 11.2246 49.0362 11.2375L49.1169 10.9553C48.6331 10.8856 48.3546 10.7281 48.2813 10.4789H49.0161V10.1875H47.0188V10.4789H47.7554C47.6931 10.7226 47.4127 10.8801 46.918 10.9516Z" fill="#666464"/>
<path d="M47.3964 11.954C47.2571 12.0603 47.1875 12.2014 47.1875 12.3846C47.1875 12.5678 47.2571 12.7089 47.3964 12.8152C47.543 12.9233 47.7519 12.9801 48.0212 12.9801C48.2906 12.9801 48.494 12.9252 48.6424 12.8152C48.7817 12.7089 48.8513 12.566 48.8513 12.3846C48.8513 12.2032 48.7817 12.0603 48.6424 11.954C48.494 11.844 48.2888 11.7891 48.0212 11.7891C47.7537 11.7891 47.543 11.844 47.3964 11.954ZM48.4097 12.3846C48.4097 12.4707 48.3731 12.544 48.3071 12.6045C48.2375 12.6631 48.1422 12.6924 48.0212 12.6924C47.9003 12.6924 47.8032 12.6631 47.7354 12.6045C47.6676 12.544 47.6309 12.4707 47.6309 12.3846C47.6309 12.2985 47.6658 12.2252 47.7354 12.1647C47.805 12.1061 47.8985 12.0768 48.0212 12.0768C48.144 12.0768 48.2356 12.1061 48.3071 12.1647C48.3749 12.2252 48.4097 12.2985 48.4097 12.3846Z" fill="#666464"/>
<path d="M49.336 11.3828H46.6992V11.6797H49.336V11.3828Z" fill="#666464"/>
<path d="M29.9766 10.1016H28.9102V10.4057H29.9766V10.1016Z" fill="#666464"/>
<path d="M32.5277 10.8846H32.0971V11.438H31.7031V11.7404H32.3536C32.5863 11.7404 33.2607 11.6909 33.4018 11.6909V11.3886C33.2717 11.3886 32.7366 11.4362 32.5259 11.4362V10.8828L32.5277 10.8846Z" fill="#666464"/>
<path d="M33.5508 12.1566H34.0162V11.2129H34.4267V10.9106H34.0162V10.1758H33.5508V12.1566Z" fill="#666464"/>
<path d="M36.3969 11.8842C36.3035 11.8823 35.4075 11.9245 35.3506 11.9171C35.2774 11.9062 35.2407 11.875 35.2407 11.8255V11.3198H36.2082V10.4091C36.2192 10.2808 36.1569 10.2148 36.0286 10.2148H34.8009V10.519H35.6658C35.7153 10.519 35.7373 10.5465 35.7373 10.5996V11.0211H34.7734V11.8915C34.7734 12.0967 34.8596 12.2122 35.0318 12.236C35.1198 12.247 35.2334 12.2525 35.3726 12.2525C35.4441 12.2525 36.3292 12.203 36.3951 12.2012V11.8842H36.3969Z" fill="#666464"/>
<path d="M37.0261 10.1758H36.5625V12.8731H37.0261V10.1758Z" fill="#666464"/>
<path d="M38.4767 10.1016H37.8555V10.4094H38.4767V10.1016Z" fill="#666464"/>
<path d="M47.9806 31.0605C43.3612 38.0493 37.2831 42.3994 32.1267 42.4159H32.0974C26.9758 42.4159 20.8867 38.0548 16.2067 31.0385C16.007 30.7398 15.8146 30.443 15.6277 30.1425H12.793C13.5113 31.4636 14.3212 32.7701 15.2282 34.0491C20.1941 41.0654 26.6588 45.4247 32.0974 45.4247H32.1267C37.6074 45.4101 44.0556 41.0581 48.961 34.0711C49.8607 32.7848 50.6688 31.471 51.3834 30.1406H48.5688C48.3746 30.4485 48.184 30.7545 47.9806 31.0587V31.0605Z" fill="url(#paint0_linear_3184_59431)"/>
<path d="M13.4085 8.10059C13.4269 8.04562 13.4489 7.99065 13.4672 7.93568C20.1555 6.92052 26.9464 5.61035 32.0514 3.12195C37.1693 5.58287 43.9694 6.85273 50.6613 7.8294C50.6815 7.8862 50.7017 7.94117 50.7218 7.99615C51.2844 9.56652 51.6124 11.2413 51.715 12.9803H54.3738C54.2675 10.9317 53.8864 8.95633 53.223 7.1001C53.1131 6.79959 52.9922 6.48258 52.8547 6.13259L52.5689 5.41795L51.8066 5.30801C44.8288 4.31118 37.6751 3.03216 32.6506 0.453966L32.0404 0.140625L31.4303 0.457631C26.4205 3.06514 19.2759 4.38448 12.3036 5.42345L11.5413 5.53706L11.2628 6.24986C11.1254 6.59619 11.0063 6.91503 10.8982 7.21921C10.2586 9.03695 9.89582 10.972 9.79688 12.9785H12.4557C12.5546 11.2762 12.8643 9.63798 13.4067 8.10059H13.4085Z" fill="url(#paint1_linear_3184_59431)"/>
<path d="M31.6498 27.7138H34.9097L35.956 21.6284C36.6559 17.5714 35.1424 15.543 31.4153 15.543H19.7923L17.707 27.7138H20.9559L22.616 18.079H26.3322L24.6812 27.7138H27.9319L29.5902 18.079H30.0464C32.2178 18.079 33.0571 19.5285 32.5568 22.4255L31.6461 27.712L31.6498 27.7138Z" fill="#374E65"/>
<path d="M2.26998 15.543L0.171875 27.7138H3.03226L5.1267 15.543H2.26998Z" fill="#374E65"/>
<path d="M16.8489 23.9979C17.023 22.9828 16.8855 22.1289 16.4311 21.4362C15.929 20.6666 15.1301 20.28 14.038 20.28H9.98287C9.6567 20.28 9.42765 20.1774 9.29022 19.9721C9.15095 19.7669 9.11064 19.5195 9.15828 19.2282C9.20776 18.9313 9.34336 18.6711 9.56141 18.4512C9.77764 18.2295 10.0433 18.1196 10.353 18.1196H17.2337L17.6753 15.5469H10.3182C9.22608 15.5469 8.28606 15.9317 7.50545 16.7031C6.80731 17.3939 6.3712 18.235 6.20261 19.23C6.02854 20.2397 6.17146 21.0844 6.63323 21.7679C7.14447 22.532 7.95073 22.9131 9.052 22.9131H13.1163C13.4278 22.9131 13.6422 23.0176 13.7723 23.2283C13.8987 23.4372 13.9372 23.6919 13.8859 23.9906C13.8327 24.2893 13.7045 24.5531 13.4938 24.7822C13.2849 25.0112 13.032 25.1267 12.737 25.1267H5.18929L4.74219 27.7177H12.7553C13.8511 27.7177 14.7801 27.3347 15.5479 26.5633C16.2405 25.8651 16.673 25.0112 16.8489 23.9998V23.9979Z" fill="#374E65"/>
<path d="M40.9607 18.4512C41.1788 18.2295 41.4445 18.1196 41.756 18.1196H48.6348L49.0801 15.5469H41.7212C40.6272 15.5469 39.689 15.9317 38.9084 16.7031C38.2121 17.3939 37.776 18.235 37.6056 19.23C37.4297 20.2397 37.5726 21.0844 38.0344 21.7679C38.5438 22.532 39.3519 22.9131 40.4513 22.9131H44.5174C44.8289 22.9131 45.0452 23.0176 45.1716 23.2283C45.298 23.4372 45.3347 23.6919 45.2834 23.9906C45.2321 24.2893 45.102 24.5531 44.8931 24.7822C44.686 25.0112 44.4331 25.1267 44.1344 25.1267H37.2226L36.7773 27.7177H44.1528C45.2467 27.7177 46.1794 27.3347 46.9472 26.5633C47.6362 25.8651 48.0705 25.0112 48.2445 23.9998C48.4186 22.9846 48.2793 22.1307 47.8286 21.4381C47.3247 20.6684 46.5276 20.2818 45.4318 20.2818H41.3785C41.0542 20.2818 40.8215 20.1792 40.6859 19.974C40.5466 19.7687 40.5026 19.5214 40.5521 19.23C40.6034 18.9332 40.739 18.673 40.9571 18.4531L40.9607 18.4512Z" fill="#374E65"/>
<path d="M60.8267 15.543H53.3743L51.2891 27.7138H54.5397L55.3588 22.9587H59.5495C62.0343 22.9587 63.5149 21.5624 63.9125 19.2444C64.3138 16.9264 63.3096 15.543 60.8249 15.543H60.8267ZM60.9037 19.4387C60.7791 20.168 60.0498 20.7598 59.2747 20.7598H55.7143L56.1669 18.1193H59.731C60.5061 18.1193 61.032 18.7112 60.9055 19.4387H60.9037Z" fill="#005F8B"/>
<path d="M51.5428 21.1162C51.5428 20.9989 51.202 20.9 50.7091 20.8523C51.0224 20.4712 51.1947 20.1597 51.1122 20.0791C51.0297 19.9966 50.7182 20.1688 50.3371 20.4822C50.2894 19.9911 50.1905 19.6484 50.0732 19.6484C49.9559 19.6484 49.8588 19.9893 49.8112 20.4803C49.4319 20.167 49.1185 19.9966 49.0361 20.0791C48.9536 20.1615 49.1259 20.473 49.4374 20.8523C48.9481 20.9 48.6055 20.9989 48.6055 21.1162C48.6055 21.2335 48.9481 21.3324 49.4374 21.3801C49.124 21.7612 48.9536 22.0727 49.0361 22.1552C49.1185 22.2376 49.43 22.0654 49.8112 21.7539C49.8588 22.245 49.9578 22.5858 50.0732 22.5858C50.1887 22.5858 50.2894 22.245 50.3371 21.7539C50.7182 22.0672 51.0297 22.2376 51.1122 22.157C51.1947 22.0745 51.0224 21.763 50.7109 21.3819C51.202 21.3343 51.5428 21.2353 51.5428 21.118V21.1162Z" fill="#374E65"/>
</g>
</g>
<defs>
<linearGradient id="paint0_linear_3184_59431" x1="12.793" y1="37.7854" x2="51.3834" y2="37.7854" gradientUnits="userSpaceOnUse">
<stop stop-color="#5FA224"/>
<stop offset="1" stop-color="#004E97"/>
</linearGradient>
<linearGradient id="paint1_linear_3184_59431" x1="9.80054" y1="6.55954" x2="54.3756" y2="6.55954" gradientUnits="userSpaceOnUse">
<stop stop-color="#5FA224"/>
<stop offset="1" stop-color="#004E97"/>
</linearGradient>
<clipPath id="clip0_3184_59431">
<rect width="64" height="46" fill="white"/>
</clipPath>
<clipPath id="clip1_3184_59431">
<rect width="63.83" height="45.2842" fill="white" transform="translate(0.171875 0.140625)"/>
</clipPath>
</defs>
</svg>
