<svg width="98" height="24" viewBox="0 0 98 24" fill="none" xmlns="http://www.w3.org/2000/svg">
<path d="M18.7199 12.5521C17.4239 12.5521 16.3919 11.9041 16.3919 10.6081V2.44806C16.3919 1.17606 17.4239 0.504056 18.7199 0.504056C20.0159 0.504056 21.0479 1.17606 21.0479 2.44806V10.6081C21.0479 11.9041 20.0159 12.5521 18.7199 12.5521ZM6.69594 12.1441C2.99994 12.1441 -5.84722e-05 10.4881 -5.84722e-05 7.05606V5.90406C-5.84722e-05 2.44806 2.99994 0.744056 6.69594 0.744056C10.3679 0.744056 13.3679 2.44806 13.3679 5.90406V7.05606C13.3679 10.4881 10.3679 12.1441 6.69594 12.1441ZM6.69594 9.16806C7.91994 9.16806 8.90394 8.47206 8.90394 7.32006V5.64006C8.90394 4.48806 7.91994 3.74406 6.69594 3.74406C5.42394 3.74406 4.48794 4.48806 4.48794 5.64006V7.32006C4.48794 8.47206 5.42394 9.16806 6.69594 9.16806ZM20.3519 22.9441H2.42394C1.53594 22.9441 1.03194 22.4641 1.03194 21.5521V18.2161C1.03194 17.3041 1.53594 16.8241 2.42394 16.8241H16.4639V15.7681H2.15994C1.46394 15.7681 0.887942 15.1921 0.887942 14.4721C0.887942 13.7761 1.46394 13.2241 2.15994 13.2241H19.6559C20.5439 13.2241 21.0479 13.7041 21.0479 14.6161V17.8081C21.0479 18.7201 20.5439 19.2001 19.6559 19.2001H5.61594V20.3281H20.3519C21.0719 20.3281 21.6719 20.9041 21.6719 21.6481C21.6719 22.3681 21.0719 22.9441 20.3519 22.9441ZM41.3279 17.1361C40.0559 17.1361 39.0479 16.4881 39.0479 15.2401V2.40006C39.0479 1.15206 40.0559 0.504056 41.3279 0.504056C42.5999 0.504056 43.6079 1.15206 43.6079 2.40006V6.48006H44.5919C45.6479 6.48006 46.3199 7.32006 46.3199 8.35206C46.3199 9.38406 45.6479 10.2481 44.5919 10.2481H43.6079V15.2401C43.6079 16.4881 42.5999 17.1361 41.3279 17.1361ZM34.1519 13.8721H25.0559C23.9039 13.8721 23.2799 13.2721 23.2799 12.1201V2.59206C23.2799 1.39206 24.2639 0.792055 25.4879 0.792055C26.7119 0.792055 27.6959 1.39206 27.6959 2.59206V3.74406H31.5839V2.56806C31.5839 1.36806 32.5439 0.792055 33.7679 0.792055C34.9439 0.792055 35.9039 1.36806 35.9039 2.56806V12.1201C35.9039 13.2721 35.3039 13.8721 34.1519 13.8721ZM27.6959 7.03206V10.4881H31.5839V7.03206H27.6959ZM42.5999 22.9441H26.2799C25.0319 22.9441 24.3359 22.2721 24.3359 21.0241V17.0161C24.3359 15.7441 25.3679 15.0961 26.6399 15.0961C27.9119 15.0961 28.9439 15.7441 28.9439 17.0161V19.4881H42.5999C43.5599 19.4881 44.3279 20.2801 44.3279 21.2161C44.3279 22.1761 43.5599 22.9441 42.5999 22.9441ZM66.5233 5.47206H54.3313C53.4433 5.47206 52.6993 4.72806 52.6993 3.81606C52.6993 2.92806 53.4433 2.18406 54.3313 2.18406H58.0273V1.48806C58.0273 0.528056 59.0833 5.53131e-05 60.4273 5.53131e-05C61.7713 5.53131e-05 62.8273 0.528056 62.8273 1.48806V2.18406H66.5233C67.4113 2.18406 68.1793 2.92806 68.1793 3.81606C68.1793 4.72806 67.4113 5.47206 66.5233 5.47206ZM71.7313 0.504056C73.0033 0.504056 74.0353 1.34406 74.0353 2.64006V21.0721C74.0353 22.3441 73.0033 23.2081 71.7313 23.2081C70.4353 23.2081 69.4033 22.3441 69.4033 21.0721V2.64006C69.4033 1.34406 70.4353 0.504056 71.7313 0.504056ZM56.7313 6.31206H64.1713C66.0193 6.31206 67.6753 8.20806 67.6753 10.5841C67.6753 12.9361 66.0193 14.8321 64.1713 14.8321H56.7313C54.8833 14.8321 53.2273 12.9361 53.2273 10.5841C53.2273 8.20806 54.8833 6.31206 56.7313 6.31206ZM58.1233 11.7121H62.8753C63.4513 11.7121 63.8593 11.1361 63.8593 10.5841C63.8593 9.96006 63.4513 9.43206 62.8753 9.43206H58.1233C57.5233 9.43206 57.0913 9.96006 57.0913 10.5841C57.0913 11.1361 57.5233 11.7121 58.1233 11.7121ZM66.8113 18.2401C67.9873 18.0961 68.6833 18.9841 68.6833 20.0161C68.6833 20.9521 68.1313 21.6481 67.0273 21.7921C62.7553 22.3681 58.4833 22.6561 54.2113 22.7041C53.2033 22.7041 52.2913 21.9601 52.2913 20.9281C52.2913 19.9921 53.0593 19.1761 53.9713 19.1761C55.3633 19.1521 56.7313 19.1041 58.1233 19.0321V17.5201C58.1233 16.2241 59.1553 15.5761 60.4513 15.5761C61.7233 15.5761 62.7793 16.2241 62.7793 17.5201V18.6961C64.1233 18.5761 65.4673 18.4321 66.8113 18.2401ZM88.3153 13.7521H92.8033V2.40006C92.8033 1.15206 93.8113 0.504056 95.0833 0.504056C96.3313 0.504056 97.3633 1.15206 97.3633 2.40006V16.7281C97.3633 17.9521 96.3313 18.6001 95.0833 18.6001C93.8113 18.6001 92.8033 17.9521 92.8033 16.7281V16.6801H88.3153C87.4993 16.6801 86.8513 16.0321 86.8513 15.2161C86.8513 14.4241 87.4993 13.7521 88.3153 13.7521ZM86.8033 8.47206H80.2273C78.0193 8.47206 76.4353 6.79206 76.4353 4.75206C76.4353 2.66406 78.0193 1.00806 80.2273 1.00806H86.8033C88.9873 1.00806 90.6193 2.66406 90.6193 4.75206C90.6193 6.79206 88.9873 8.47206 86.8033 8.47206ZM85.6273 3.84006H81.4513C80.9713 3.84006 80.5633 4.24806 80.5633 4.80006C80.5633 5.30406 80.9713 5.73606 81.4513 5.73606H85.6273C86.1073 5.73606 86.5393 5.30406 86.5393 4.80006C86.5393 4.24806 86.1073 3.84006 85.6273 3.84006ZM81.1873 14.7121C81.4033 13.9921 81.6193 13.3441 81.6913 12.6001H77.0833C76.1953 12.6001 75.4993 11.9041 75.4993 11.0161C75.4993 10.1281 76.1953 9.43206 77.0833 9.43206H90.5233C91.4113 9.43206 92.1313 10.1281 92.1313 11.0161C92.1313 11.9041 91.4113 12.6001 90.5233 12.6001H85.9153C85.7953 13.5841 85.6033 14.4481 85.2913 15.4321C84.9793 16.3921 84.2593 16.9681 83.2273 16.9681C81.9313 16.9681 80.8033 15.9601 81.1873 14.7121ZM81.7393 19.8241H96.4033C97.2433 19.8241 97.9633 20.5201 97.9633 21.3841C97.9633 22.2481 97.2433 22.9441 96.4033 22.9441H79.3633C78.1153 22.9441 77.4193 22.2721 77.4193 21.0241V17.7841C77.4193 16.6321 78.3793 16.0321 79.5793 16.0321C80.7793 16.0321 81.7393 16.6321 81.7393 17.7841V19.8241Z" fill="black"/>
</svg>
