<svg width="16" height="16" viewBox="0 0 16 16" fill="none" xmlns="http://www.w3.org/2000/svg">
<path d="M1.33203 5.99967C1.86246 5.99967 2.37117 6.21039 2.74624 6.58546C3.12132 6.96053 3.33203 7.46924 3.33203 7.99967C3.33203 8.53011 3.12132 9.03882 2.74624 9.41389C2.37117 9.78896 1.86246 9.99967 1.33203 9.99967V11.333C1.33203 11.6866 1.47251 12.0258 1.72256 12.2758C1.9726 12.5259 2.31174 12.6663 2.66536 12.6663H13.332C13.6857 12.6663 14.0248 12.5259 14.2748 12.2758C14.5249 12.0258 14.6654 11.6866 14.6654 11.333V9.99967C14.1349 9.99967 13.6262 9.78896 13.2512 9.41389C12.8761 9.03882 12.6654 8.53011 12.6654 7.99967C12.6654 7.46924 12.8761 6.96053 13.2512 6.58546C13.6262 6.21039 14.1349 5.99967 14.6654 5.99967V4.66634C14.6654 4.31272 14.5249 3.97358 14.2748 3.72353C14.0248 3.47348 13.6857 3.33301 13.332 3.33301H2.66536C2.31174 3.33301 1.9726 3.47348 1.72256 3.72353C1.47251 3.97358 1.33203 4.31272 1.33203 4.66634V5.99967Z" stroke="#7E7E7E" stroke-linecap="round" stroke-linejoin="round"/>
<path d="M6 8.00033L7.33333 9.33366L10 6.66699" stroke="#7E7E7E" stroke-linecap="round" stroke-linejoin="round"/>
</svg>
