<svg width="14" height="14" viewBox="0 0 14 14" fill="none" xmlns="http://www.w3.org/2000/svg">
<path d="M2 14H12C12.5523 14 13 13.5523 13 13V7V2.68604C13 2.37917 12.8591 2.0893 12.6178 1.89972L10.472 0.213682C10.2958 0.0752501 10.0782 0 9.85414 0H7H2C1.44772 0 1 0.447716 1 1V13C1 13.5523 1.44772 14 2 14Z" fill="url(#paint0_linear_2004_41)"/>
<mask id="mask0_2004_41" style="mask-type:alpha" maskUnits="userSpaceOnUse" x="1" y="0" width="12" height="14">
<path d="M2 14H12C12.5523 14 13 13.5523 13 13V7V2.68604C13 2.37917 12.8591 2.0893 12.6178 1.89972L10.472 0.213682C10.2958 0.0752501 10.0782 0 9.85414 0H7H2C1.44772 0 1 0.447716 1 1V13C1 13.5523 1.44772 14 2 14Z" fill="url(#paint1_linear_2004_41)"/>
</mask>
<g mask="url(#mask0_2004_41)">
<path d="M13.5 6L10 2.5L14.5 1.5L13.5 6Z" fill="url(#paint2_linear_2004_41)"/>
<g filter="url(#filter0_d_2004_41)">
<path d="M10.4 2.75674C10.1791 2.75674 9.99998 2.57765 9.99998 2.35674L10 -0.50003L12.4083 -0.0183789C12.4664 -0.00675117 12.5164 0.0300714 12.5447 0.0821505L13.8391 2.46118C13.9117 2.59446 13.8152 2.75677 13.6635 2.75677L10.4 2.75674Z" fill="url(#paint3_linear_2004_41)"/>
</g>
</g>
<rect x="3.5" y="5.29999" width="7" height="1.1" rx="0.3" fill="white"/>
<rect x="3.5" y="7.59998" width="7" height="1.1" rx="0.3" fill="white"/>
<rect x="3.5" y="9.89999" width="7" height="1.1" rx="0.3" fill="white"/>
<defs>
<filter id="filter0_d_2004_41" x="7" y="-3.50003" width="9.86377" height="9.25681" filterUnits="userSpaceOnUse" color-interpolation-filters="sRGB">
<feFlood flood-opacity="0" result="BackgroundImageFix"/>
<feColorMatrix in="SourceAlpha" type="matrix" values="0 0 0 0 0 0 0 0 0 0 0 0 0 0 0 0 0 0 127 0" result="hardAlpha"/>
<feOffset/>
<feGaussianBlur stdDeviation="1.5"/>
<feComposite in2="hardAlpha" operator="out"/>
<feColorMatrix type="matrix" values="0 0 0 0 0 0 0 0 0 0 0 0 0 0 0 0 0 0 0.2 0"/>
<feBlend mode="normal" in2="BackgroundImageFix" result="effect1_dropShadow_2004_41"/>
<feBlend mode="normal" in="SourceGraphic" in2="effect1_dropShadow_2004_41" result="shape"/>
</filter>
<linearGradient id="paint0_linear_2004_41" x1="7" y1="0" x2="7" y2="14" gradientUnits="userSpaceOnUse">
<stop stop-color="#7FAEF4"/>
<stop offset="1" stop-color="#4779EE"/>
</linearGradient>
<linearGradient id="paint1_linear_2004_41" x1="7" y1="0" x2="7" y2="14" gradientUnits="userSpaceOnUse">
<stop stop-color="#7FAEF4"/>
<stop offset="1" stop-color="#263B92"/>
</linearGradient>
<linearGradient id="paint2_linear_2004_41" x1="11.5" y1="2" x2="12.5" y2="5" gradientUnits="userSpaceOnUse">
<stop stop-color="#4A7CEF"/>
<stop offset="1" stop-color="#7FAEF4" stop-opacity="0"/>
</linearGradient>
<linearGradient id="paint3_linear_2004_41" x1="10" y1="0.49997" x2="13" y2="2.49997" gradientUnits="userSpaceOnUse">
<stop stop-color="#A7C5FD"/>
<stop offset="1" stop-color="#6092DC"/>
</linearGradient>
</defs>
</svg>
