<svg width="20" height="22" viewBox="0 0 20 22" fill="none" xmlns="http://www.w3.org/2000/svg">
<path d="M1.66699 19.2498C1.66692 17.8384 2.0371 16.457 2.73311 15.2713C3.42912 14.0857 4.42139 13.1461 5.59083 12.5654C6.76026 11.9848 8.05719 11.7876 9.32596 11.9977C10.5947 12.2078 11.7814 12.8161 12.7437 13.7498" stroke="black" stroke-width="1.66667" stroke-linecap="round" stroke-linejoin="round"/>
<path d="M8.33317 11.9167C10.6344 11.9167 12.4998 9.86464 12.4998 7.33333C12.4998 4.80203 10.6344 2.75 8.33317 2.75C6.03198 2.75 4.1665 4.80203 4.1665 7.33333C4.1665 9.86464 6.03198 11.9167 8.33317 11.9167Z" stroke="black" stroke-width="1.66667" stroke-linecap="round" stroke-linejoin="round"/>
<path d="M13.333 17.4163L14.9997 19.2497L18.333 15.583" stroke="black" stroke-width="1.66667" stroke-linecap="round" stroke-linejoin="round"/>
</svg>
