<svg width="74" height="74" viewBox="0 0 74 74" fill="none" xmlns="http://www.w3.org/2000/svg">
<circle cx="37" cy="37" r="37" fill="#E6E6E6"/>
<path d="M29.2048 53.0399C30.0907 53.0399 30.8089 52.3217 30.8089 51.4357C30.8089 50.5498 30.0907 49.8315 29.2048 49.8315C28.3188 49.8315 27.6006 50.5498 27.6006 51.4357C27.6006 52.3217 28.3188 53.0399 29.2048 53.0399Z" fill="white" stroke="white" stroke-width="2" stroke-linecap="round" stroke-linejoin="round"/>
<path d="M46.8542 53.0399C47.7401 53.0399 48.4583 52.3217 48.4583 51.4357C48.4583 50.5498 47.7401 49.8315 46.8542 49.8315C45.9682 49.8315 45.25 50.5498 45.25 51.4357C45.25 52.3217 45.9682 53.0399 46.8542 53.0399Z" fill="white" stroke="white" stroke-width="2" stroke-linecap="round" stroke-linejoin="round"/>
<path d="M19.6621 21.0398H22.8704L27.1375 40.9635C27.2941 41.6932 27.7001 42.3455 28.2856 42.8081C28.8712 43.2707 29.5998 43.5147 30.3459 43.4981H46.0346C46.7648 43.4969 47.4727 43.2467 48.0415 42.7888C48.6102 42.3309 49.0058 41.6927 49.1627 40.9796L51.8096 29.0606H24.5869" stroke="white" stroke-width="2" stroke-linecap="round" stroke-linejoin="round"/>
</svg>
