<svg width="16" height="16" viewBox="0 0 16 16" fill="none" xmlns="http://www.w3.org/2000/svg">
<path d="M12.75 7.875C12.75 8.83918 12.4641 9.78171 11.9284 10.5834C11.3927 11.3851 10.6314 12.0099 9.74058 12.3789C8.84979 12.7479 7.86959 12.8444 6.92394 12.6563C5.97828 12.4682 5.10964 12.0039 4.42786 11.3221C3.74608 10.6404 3.28178 9.77172 3.09367 8.82606C2.90557 7.88041 3.00211 6.90021 3.37109 6.00942C3.74007 5.11863 4.36491 4.35726 5.1666 3.82159C5.96829 3.28591 6.91082 3 7.875 3C9.24 3 10.5454 3.54167 11.5258 4.48417L12.75 5.70833" stroke="#949494" stroke-width="1.08333" stroke-linecap="round" stroke-linejoin="round"/>
<path d="M12.7513 3V5.70833H10.043" stroke="#949494" stroke-width="1.08333" stroke-linecap="round" stroke-linejoin="round"/>
</svg>
