<svg width="32" height="32" viewBox="0 0 32 32" fill="none" xmlns="http://www.w3.org/2000/svg">
<path d="M10.3307 27.6654C10.9751 27.6654 11.4974 27.143 11.4974 26.4987C11.4974 25.8544 10.9751 25.332 10.3307 25.332C9.6864 25.332 9.16406 25.8544 9.16406 26.4987C9.16406 27.143 9.6864 27.6654 10.3307 27.6654Z" stroke="#3B3B3B" stroke-linecap="round" stroke-linejoin="round"/>
<path d="M23.1667 27.6654C23.811 27.6654 24.3333 27.143 24.3333 26.4987C24.3333 25.8544 23.811 25.332 23.1667 25.332C22.5223 25.332 22 25.8544 22 26.4987C22 27.143 22.5223 27.6654 23.1667 27.6654Z" stroke="#3B3B3B" stroke-linecap="round" stroke-linejoin="round"/>
<path d="M3.39062 4.39258H5.72396L8.82729 18.8826C8.94113 19.4132 9.23641 19.8876 9.66229 20.2241C10.0882 20.5605 10.618 20.738 11.1606 20.7259H22.5706C23.1017 20.7251 23.6165 20.5431 24.0302 20.2101C24.4438 19.877 24.7315 19.4129 24.8456 18.8942L26.7706 10.2259H6.97229" stroke="#3B3B3B" stroke-linecap="round" stroke-linejoin="round"/>
</svg>
