<svg width="20" height="20" viewBox="0 0 20 20" fill="none" xmlns="http://www.w3.org/2000/svg">
<path d="M1.71835 10.29C1.6489 10.1029 1.6489 9.8971 1.71835 9.71C2.39476 8.06988 3.54294 6.66753 5.01732 5.68075C6.4917 4.69397 8.22588 4.16718 10 4.16718C11.7741 4.16718 13.5083 4.69397 14.9827 5.68075C16.4571 6.66753 17.6053 8.06988 18.2817 9.71C18.3511 9.8971 18.3511 10.1029 18.2817 10.29C17.6053 11.9301 16.4571 13.3325 14.9827 14.3193C13.5083 15.306 11.7741 15.8328 10 15.8328C8.22588 15.8328 6.4917 15.306 5.01732 14.3193C3.54294 13.3325 2.39476 11.9301 1.71835 10.29Z" stroke="black" stroke-linecap="round" stroke-linejoin="round"/>
<path d="M10 12.5C11.3807 12.5 12.5 11.3807 12.5 10C12.5 8.61929 11.3807 7.5 10 7.5C8.61929 7.5 7.5 8.61929 7.5 10C7.5 11.3807 8.61929 12.5 10 12.5Z" stroke="black" stroke-linecap="round" stroke-linejoin="round"/>
</svg>
