<svg width="99" height="24" viewBox="0 0 99 24" fill="none" xmlns="http://www.w3.org/2000/svg">
<path d="M19.2001 23.2081C17.8801 23.2081 16.8481 22.3441 16.8481 21.0721V2.64006C16.8481 1.34406 17.8801 0.504056 19.2001 0.504056C20.4721 0.504056 21.5041 1.34406 21.5041 2.64006V21.0721C21.5041 22.3441 20.4721 23.2081 19.2001 23.2081ZM2.54409 21.8161C1.17609 22.1761 9.18806e-05 21.1921 9.18806e-05 19.9201C9.18806e-05 19.0561 0.600092 18.2881 1.36809 18.0241C6.72009 16.3201 9.88809 12.2401 9.88809 5.28006H2.01609C1.00809 5.28006 0.144092 4.46406 0.144092 3.40806C0.144092 2.37606 1.00809 1.53606 2.01609 1.53606H12.4321C13.6081 1.53606 14.2321 2.18406 14.2321 3.33606V4.68006C14.2321 14.2081 9.62409 19.7761 2.54409 21.8161ZM42.5761 0.504056C43.8241 0.504056 44.8561 1.15206 44.8561 2.42406V10.7761C44.8561 12.0481 43.8241 12.6721 42.5761 12.6721C41.2801 12.6721 40.2721 12.0481 40.2721 10.7761V8.35206H36.3361C35.7361 10.9921 33.1681 12.3601 30.1201 12.3601C26.6161 12.3601 23.7841 10.5841 23.7841 7.12806V6.02406C23.7841 2.54406 26.6161 0.744056 30.1201 0.744056C33.1681 0.744056 35.7121 2.11206 36.3121 4.77606H40.2721V2.42406C40.2721 1.15206 41.2801 0.504056 42.5761 0.504056ZM32.3281 7.36806V5.76006C32.3281 4.56006 31.3681 3.84006 30.1441 3.84006C28.9201 3.84006 27.9841 4.56006 27.9841 5.76006V7.36806C27.9841 8.56806 28.9201 9.26406 30.1441 9.26406C31.3681 9.26406 32.3281 8.56806 32.3281 7.36806ZM42.5761 13.1521C43.8241 13.1521 44.8561 13.8001 44.8561 15.0721V21.4801C44.8561 22.7281 43.8241 23.2081 42.5761 23.2081C41.6161 23.2081 40.8001 22.9441 40.4641 22.2961L26.6161 22.8721C25.4881 22.9201 24.8161 22.2961 24.8161 21.1441V15.0481C24.8161 13.8001 25.8241 13.1521 27.0961 13.1521C28.3441 13.1521 29.3281 13.7761 29.3761 14.9521H40.2721C40.3441 13.7521 41.3281 13.1521 42.5761 13.1521ZM40.2721 18.0241H29.3761V19.5841L40.2721 19.1521V18.0241ZM67.0274 5.47206H54.8354C53.9474 5.47206 53.2034 4.72806 53.2034 3.81606C53.2034 2.92806 53.9474 2.18406 54.8354 2.18406H58.5314V1.48806C58.5314 0.528056 59.5874 5.53131e-05 60.9314 5.53131e-05C62.2754 5.53131e-05 63.3314 0.528056 63.3314 1.48806V2.18406H67.0274C67.9154 2.18406 68.6834 2.92806 68.6834 3.81606C68.6834 4.72806 67.9154 5.47206 67.0274 5.47206ZM72.2354 0.504056C73.5074 0.504056 74.5394 1.34406 74.5394 2.64006V21.0721C74.5394 22.3441 73.5074 23.2081 72.2354 23.2081C70.9394 23.2081 69.9074 22.3441 69.9074 21.0721V2.64006C69.9074 1.34406 70.9394 0.504056 72.2354 0.504056ZM57.2354 6.31206H64.6754C66.5234 6.31206 68.1794 8.20806 68.1794 10.5841C68.1794 12.9361 66.5234 14.8321 64.6754 14.8321H57.2354C55.3874 14.8321 53.7314 12.9361 53.7314 10.5841C53.7314 8.20806 55.3874 6.31206 57.2354 6.31206ZM58.6274 11.7121H63.3794C63.9554 11.7121 64.3634 11.1361 64.3634 10.5841C64.3634 9.96006 63.9554 9.43206 63.3794 9.43206H58.6274C58.0274 9.43206 57.5954 9.96006 57.5954 10.5841C57.5954 11.1361 58.0274 11.7121 58.6274 11.7121ZM67.3154 18.2401C68.4914 18.0961 69.1874 18.9841 69.1874 20.0161C69.1874 20.9521 68.6354 21.6481 67.5314 21.7921C63.2594 22.3681 58.9874 22.6561 54.7154 22.7041C53.7074 22.7041 52.7954 21.9601 52.7954 20.9281C52.7954 19.9921 53.5634 19.1761 54.4754 19.1761C55.8674 19.1521 57.2354 19.1041 58.6274 19.0321V17.5201C58.6274 16.2241 59.6594 15.5761 60.9554 15.5761C62.2274 15.5761 63.2834 16.2241 63.2834 17.5201V18.6961C64.6274 18.5761 65.9714 18.4321 67.3154 18.2401ZM88.8194 13.7521H93.3074V2.40006C93.3074 1.15206 94.3154 0.504056 95.5874 0.504056C96.8354 0.504056 97.8674 1.15206 97.8674 2.40006V16.7281C97.8674 17.9521 96.8354 18.6001 95.5874 18.6001C94.3154 18.6001 93.3074 17.9521 93.3074 16.7281V16.6801H88.8194C88.0034 16.6801 87.3554 16.0321 87.3554 15.2161C87.3554 14.4241 88.0034 13.7521 88.8194 13.7521ZM87.3074 8.47206H80.7314C78.5234 8.47206 76.9394 6.79206 76.9394 4.75206C76.9394 2.66406 78.5234 1.00806 80.7314 1.00806H87.3074C89.4914 1.00806 91.1234 2.66406 91.1234 4.75206C91.1234 6.79206 89.4914 8.47206 87.3074 8.47206ZM86.1314 3.84006H81.9554C81.4754 3.84006 81.0674 4.24806 81.0674 4.80006C81.0674 5.30406 81.4754 5.73606 81.9554 5.73606H86.1314C86.6114 5.73606 87.0434 5.30406 87.0434 4.80006C87.0434 4.24806 86.6114 3.84006 86.1314 3.84006ZM81.6914 14.7121C81.9074 13.9921 82.1234 13.3441 82.1954 12.6001H77.5874C76.6994 12.6001 76.0034 11.9041 76.0034 11.0161C76.0034 10.1281 76.6994 9.43206 77.5874 9.43206H91.0274C91.9154 9.43206 92.6354 10.1281 92.6354 11.0161C92.6354 11.9041 91.9154 12.6001 91.0274 12.6001H86.4194C86.2994 13.5841 86.1074 14.4481 85.7954 15.4321C85.4834 16.3921 84.7634 16.9681 83.7314 16.9681C82.4354 16.9681 81.3074 15.9601 81.6914 14.7121ZM82.2434 19.8241H96.9074C97.7474 19.8241 98.4674 20.5201 98.4674 21.3841C98.4674 22.2481 97.7474 22.9441 96.9074 22.9441H79.8674C78.6194 22.9441 77.9234 22.2721 77.9234 21.0241V17.7841C77.9234 16.6321 78.8834 16.0321 80.0834 16.0321C81.2834 16.0321 82.2434 16.6321 82.2434 17.7841V19.8241Z" fill="black"/>
</svg>
