<svg width="20" height="20" viewBox="0 0 20 20" fill="none" xmlns="http://www.w3.org/2000/svg">
<path d="M11.3822 13.4463C11.5381 13.5179 11.7136 13.5343 11.88 13.4927C12.0463 13.4511 12.1935 13.3542 12.2974 13.2177L12.5652 12.8669C12.7058 12.6795 12.8881 12.5274 13.0976 12.4226C13.3071 12.3179 13.5381 12.2633 13.7724 12.2633H16.0358C16.436 12.2633 16.8198 12.4223 17.1028 12.7053C17.3858 12.9883 17.5448 13.3721 17.5448 13.7723V16.0357C17.5448 16.4359 17.3858 16.8197 17.1028 17.1027C16.8198 17.3857 16.436 17.5446 16.0358 17.5446C12.434 17.5446 8.97979 16.1138 6.43296 13.567C3.88612 11.0202 2.45532 7.56591 2.45532 3.96414C2.45532 3.56395 2.6143 3.18014 2.89728 2.89716C3.18026 2.61418 3.56407 2.4552 3.96427 2.4552H6.22768C6.62788 2.4552 7.01168 2.61418 7.29467 2.89716C7.57765 3.18014 7.73663 3.56395 7.73663 3.96414V6.22756C7.73663 6.46182 7.68208 6.69285 7.57732 6.90238C7.47256 7.1119 7.32045 7.29416 7.13305 7.43472L6.77996 7.69953C6.64145 7.80529 6.54382 7.95574 6.50366 8.12532C6.4635 8.2949 6.48328 8.47315 6.55965 8.6298C7.59077 10.7241 9.28663 12.4178 11.3822 13.4463Z" stroke="black" stroke-width="1.66667" stroke-linecap="round" stroke-linejoin="round"/>
</svg>
