<svg width="14" height="14" viewBox="0 0 14 14" fill="none" xmlns="http://www.w3.org/2000/svg">
<path d="M1.16645 0H12.8335C13.4778 0 14 0.522237 14 1.16645V12.8335C14 13.4778 13.4778 14 12.8335 14H1.16645C0.522237 14 0 13.4778 0 12.8336V1.16645C0 0.522237 0.522237 0 1.16645 0Z" fill="url(#paint0_linear_1553_7774)"/>
<path d="M3.61249 10.7911L6.06631 6.9888L3.81804 3.20752H5.62658L6.85349 5.6257C6.96677 5.85543 7.0444 6.02597 7.0864 6.13861H7.10231C7.18162 5.95805 7.26651 5.77999 7.35685 5.6047L8.6684 3.2088H10.3287L8.02312 6.9678L10.3872 10.7911H8.62068L7.20349 8.1368C7.13674 8.02387 7.0801 7.90526 7.03423 7.78235H7.01323C6.97171 7.90275 6.91663 8.01804 6.84904 8.12599L5.38986 10.7911H3.61249Z" fill="white"/>
<defs>
<linearGradient id="paint0_linear_1553_7774" x1="2.43208" y1="-0.911441" x2="11.5679" y2="14.9115" gradientUnits="userSpaceOnUse">
<stop stop-color="#18884F"/>
<stop offset="0.5" stop-color="#117E43"/>
<stop offset="1" stop-color="#0B6631"/>
</linearGradient>
</defs>
</svg>
