<svg width="20" height="20" viewBox="0 0 20 20" fill="none" xmlns="http://www.w3.org/2000/svg">
<path d="M17.5 10C17.5 11.4834 17.0601 12.9334 16.236 14.1668C15.4119 15.4001 14.2406 16.3614 12.8701 16.9291C11.4997 17.4968 9.99168 17.6453 8.53682 17.3559C7.08197 17.0665 5.74559 16.3522 4.6967 15.3033C3.64781 14.2544 2.9335 12.918 2.64411 11.4632C2.35472 10.0083 2.50325 8.50032 3.0709 7.12987C3.63856 5.75943 4.59986 4.58809 5.83322 3.76398C7.06659 2.93987 8.51664 2.5 10 2.5C12.0967 2.50789 14.1092 3.32602 15.6167 4.78333L17.5 6.66667" stroke="black" stroke-linecap="round" stroke-linejoin="round"/>
<path d="M17.5 2.5V6.66667H13.3333" stroke="black" stroke-linecap="round" stroke-linejoin="round"/>
</svg>
