<svg width="20" height="20" viewBox="0 0 20 20" fill="none" xmlns="http://www.w3.org/2000/svg">
<g clip-path="url(#clip0_6833_57112)">
<path d="M10 1.66699C11.6168 1.6667 13.1987 2.13673 14.5531 3.01979C15.9074 3.90285 16.9756 5.16082 17.6275 6.64036C18.2793 8.1199 18.4868 9.75712 18.2244 11.3525C17.9621 12.9478 17.2413 14.4324 16.15 15.6253" stroke="black" stroke-width="1.66667" stroke-linecap="round" stroke-linejoin="round"/>
<path d="M10 5V10L13.3333 11.6667" stroke="black" stroke-width="1.66667" stroke-linecap="round" stroke-linejoin="round"/>
<path d="M2.08366 7.39551C1.81812 8.20272 1.6776 9.0458 1.66699 9.89551" stroke="black" stroke-width="1.66667" stroke-linecap="round" stroke-linejoin="round"/>
<path d="M2.3584 13.333C2.82632 14.4095 3.51638 15.3751 4.3834 16.1663" stroke="black" stroke-width="1.66667" stroke-linecap="round" stroke-linejoin="round"/>
<path d="M3.86328 4.3626C4.09582 4.10946 4.34379 3.87095 4.60578 3.64844" stroke="black" stroke-width="1.66667" stroke-linecap="round" stroke-linejoin="round"/>
<path d="M7.20312 17.8499C9.28121 18.5902 11.568 18.4763 13.5623 17.5332" stroke="black" stroke-width="1.66667" stroke-linecap="round" stroke-linejoin="round"/>
</g>
<defs>
<clipPath id="clip0_6833_57112">
<rect width="20" height="20" fill="white"/>
</clipPath>
</defs>
</svg>
