<svg width="80" height="80" viewBox="0 0 80 80" fill="none" xmlns="http://www.w3.org/2000/svg">
<path d="M74.2548 61.1258L46.1195 11.889C45.506 10.8065 44.6164 9.90615 43.5413 9.27972C42.4663 8.65329 41.2443 8.32324 40.0001 8.32324C38.7558 8.32324 37.5339 8.65329 36.4588 9.27972C35.3838 9.90615 34.4941 10.8065 33.8806 11.889L5.74537 61.1258C5.12528 62.1997 4.80013 63.4184 4.80287 64.6585C4.80562 65.8986 5.13617 67.1159 5.76101 68.1871C6.38585 69.2582 7.28278 70.1452 8.36088 70.758C9.43898 71.3708 10.6599 71.6876 11.9 71.6765H68.1705C69.4046 71.6752 70.6166 71.3493 71.6849 70.7314C72.7532 70.1136 73.6401 69.2255 74.2566 68.1564C74.8731 67.0874 75.1974 65.8749 75.1971 64.6409C75.1968 63.4068 74.8718 62.1945 74.2548 61.1258Z" fill="#202B9C"/>
<path d="M40.0355 29.4736V43.5413" stroke="white" stroke-width="6" stroke-linecap="round" stroke-linejoin="round"/>
<path d="M40.0355 57.6089H40.0707" stroke="white" stroke-width="6" stroke-linecap="round" stroke-linejoin="round"/>
</svg>
