<svg width="52" height="52" viewBox="0 0 52 52" fill="none" xmlns="http://www.w3.org/2000/svg">
<path d="M21.6667 26H30.3334" stroke="#4165F8" stroke-width="2.16667" stroke-linecap="round" stroke-linejoin="round"/>
<path d="M21.6667 17.3334H30.3334" stroke="#4165F8" stroke-width="2.16667" stroke-linecap="round" stroke-linejoin="round"/>
<path d="M30.3334 45.5V39C30.3334 37.8507 29.8769 36.7485 29.0642 35.9358C28.2516 35.1232 27.1494 34.6666 26.0001 34.6666C24.8508 34.6666 23.7486 35.1232 22.936 35.9358C22.1233 36.7485 21.6667 37.8507 21.6667 39V45.5" stroke="#4165F8" stroke-width="2.16667" stroke-linecap="round" stroke-linejoin="round"/>
<path d="M12.9999 21.6666H8.66659C7.51731 21.6666 6.41511 22.1232 5.60246 22.9358C4.7898 23.7485 4.33325 24.8507 4.33325 26V41.1666C4.33325 42.3159 4.7898 43.4181 5.60246 44.2308C6.41511 45.0434 7.51731 45.5 8.66659 45.5H43.3333C44.4825 45.5 45.5847 45.0434 46.3974 44.2308C47.21 43.4181 47.6666 42.3159 47.6666 41.1666V19.5C47.6666 18.3507 47.21 17.2485 46.3974 16.4358C45.5847 15.6232 44.4825 15.1666 43.3333 15.1666H38.9999" stroke="#4165F8" stroke-width="2.16667" stroke-linecap="round" stroke-linejoin="round"/>
<path d="M13 45.5V10.8333C13 9.68406 13.4565 8.58186 14.2692 7.7692C15.0819 6.95655 16.1841 6.5 17.3333 6.5H34.6667C35.8159 6.5 36.9181 6.95655 37.7308 7.7692C38.5435 8.58186 39 9.68406 39 10.8333V45.5" stroke="#4165F8" stroke-width="2.16667" stroke-linecap="round" stroke-linejoin="round"/>
</svg>
