<svg width="16" height="16" viewBox="0 0 16 16" fill="none" xmlns="http://www.w3.org/2000/svg">
<g clip-path="url(#clip0_204_5602)">
<path d="M8.66609 9.16009C8.4634 9.27712 8.23347 9.33872 7.99942 9.33872C7.76538 9.33872 7.53545 9.27712 7.33276 9.16009L1.66609 5.91343C1.56349 5.85528 1.47815 5.77096 1.41878 5.66907C1.35941 5.56717 1.32812 5.45135 1.32813 5.33343C1.32812 5.2155 1.35941 5.09968 1.41878 4.99778C1.47815 4.89589 1.56349 4.81157 1.66609 4.75343L7.33276 1.50676C7.53545 1.38973 7.76538 1.32813 7.99942 1.32812C8.23347 1.32813 8.4634 1.38973 8.66609 1.50676L14.3328 4.75343C14.4354 4.81157 14.5207 4.89589 14.5801 4.99778C14.6394 5.09968 14.6707 5.2155 14.6707 5.33343C14.6707 5.45135 14.6394 5.56717 14.5801 5.66907C14.5207 5.77096 14.4354 5.85528 14.3328 5.91343L8.66609 9.16009Z" stroke="#7E7E7E" stroke-linecap="round" stroke-linejoin="round"/>
<path d="M13.3328 9.52344L14.3328 10.0868C14.4354 10.1449 14.5207 10.2292 14.5801 10.3311C14.6394 10.433 14.6707 10.5488 14.6707 10.6668C14.6707 10.7847 14.6394 10.9005 14.5801 11.0024C14.5207 11.1043 14.4354 11.1886 14.3328 11.2468L8.66609 14.4934C8.4634 14.6105 8.23347 14.6721 7.99942 14.6721C7.76538 14.6721 7.53545 14.6105 7.33276 14.4934L1.66609 11.2468C1.56349 11.1886 1.47815 11.1043 1.41878 11.0024C1.35941 10.9005 1.32813 10.7847 1.32812 10.6668C1.32812 10.5488 1.35941 10.433 1.41878 10.3311C1.47815 10.2292 1.56349 10.1449 1.66609 10.0868L2.66609 9.52344" stroke="#7E7E7E" stroke-linecap="round" stroke-linejoin="round"/>
</g>
<defs>
<clipPath id="clip0_204_5602">
<rect width="16" height="16" fill="white"/>
</clipPath>
</defs>
</svg>
