<svg width="40" height="40" viewBox="0 0 40 40" fill="none" xmlns="http://www.w3.org/2000/svg">
<path d="M10.0003 36.6663C9.11627 36.6663 8.26842 36.3152 7.6433 35.69C7.01818 35.0649 6.66699 34.2171 6.66699 33.333V6.66635C6.66699 5.78229 7.01818 4.93444 7.6433 4.30932C8.26842 3.6842 9.11627 3.33301 10.0003 3.33301H23.3337C23.8612 3.33216 24.3838 3.43568 24.8712 3.63763C25.3586 3.83957 25.8013 4.13595 26.1737 4.50968L32.1537 10.4897C32.5284 10.8622 32.8256 11.3053 33.0281 11.7933C33.2307 12.2813 33.3345 12.8046 33.3337 13.333V33.333C33.3337 34.2171 32.9825 35.0649 32.3573 35.69C31.7322 36.3152 30.8844 36.6663 30.0003 36.6663H10.0003Z" stroke="#D2D2D2" stroke-width="1.66667" stroke-linecap="round" stroke-linejoin="round"/>
<path d="M23.333 3.33301V11.6663C23.333 12.1084 23.5086 12.5323 23.8212 12.8449C24.1337 13.1574 24.5576 13.333 24.9997 13.333H33.333" stroke="#D2D2D2" stroke-width="1.66667" stroke-linecap="round" stroke-linejoin="round"/>
<path d="M16.6663 15H13.333" stroke="#D2D2D2" stroke-width="1.66667" stroke-linecap="round" stroke-linejoin="round"/>
<path d="M26.6663 21.667H13.333" stroke="#D2D2D2" stroke-width="1.66667" stroke-linecap="round" stroke-linejoin="round"/>
<path d="M26.6663 28.333H13.333" stroke="#D2D2D2" stroke-width="1.66667" stroke-linecap="round" stroke-linejoin="round"/>
</svg>
