<svg width="20" height="20" viewBox="0 0 20 20" fill="none" xmlns="http://www.w3.org/2000/svg">
<path d="M10.0002 3.42456C11.276 3.42433 12.5243 3.79522 13.5929 4.49203C14.6616 5.18885 15.5045 6.18149 16.0189 7.34898C16.5333 8.51646 16.697 9.80837 16.49 11.0672C16.283 12.3261 15.7142 13.4976 14.8531 14.4389" stroke="black" stroke-width="1.66667" stroke-linecap="round" stroke-linejoin="round"/>
<path d="M10.0002 6.05457V10L12.6305 11.3151" stroke="black" stroke-width="1.66667" stroke-linecap="round" stroke-linejoin="round"/>
<path d="M3.75353 7.94489C3.54399 8.58185 3.43312 9.24711 3.42474 9.9176" stroke="black" stroke-width="1.66667" stroke-linecap="round" stroke-linejoin="round"/>
<path d="M3.97034 12.6301C4.33956 13.4795 4.88409 14.2414 5.56824 14.8658" stroke="black" stroke-width="1.66667" stroke-linecap="round" stroke-linejoin="round"/>
<path d="M5.15784 5.55152C5.34133 5.35177 5.537 5.16356 5.74373 4.98798" stroke="black" stroke-width="1.66667" stroke-linecap="round" stroke-linejoin="round"/>
<path d="M7.79333 16.1943C9.43312 16.7785 11.2376 16.6886 12.8113 15.9445" stroke="black" stroke-width="1.66667" stroke-linecap="round" stroke-linejoin="round"/>
</svg>
