<svg width="149" height="37" viewBox="0 0 149 37" fill="none" xmlns="http://www.w3.org/2000/svg">
<path d="M1.05286 17.8183C1.05286 10.7332 5.40018 7.9729 9.8528 7.9729C14.3054 7.9729 18.6753 10.3872 18.6753 17.8183C18.6753 24.8507 14.1776 27.8366 9.8528 27.8366C5.52804 27.8366 1.05286 25.0764 1.05286 17.8183ZM13.7789 17.8183C13.7789 13.3657 11.8159 12.1472 9.8528 12.1472C7.79196 12.1472 5.94923 13.3882 5.94923 17.8183C5.94923 22.2483 7.81453 23.6849 9.80016 23.6849C11.7858 23.6849 13.7789 22.3687 13.7789 17.8183Z" fill="#F15F0B"/>
<path d="M24.8877 19.8671V25.9819C24.8877 27.2756 23.6166 27.9224 22.5034 27.945C21.3376 27.9675 20.2169 27.3508 20.2169 25.9819V11.541C20.2169 9.05897 21.1872 8.26172 23.8196 8.26172H30.9799C32.3263 8.26172 32.9956 9.35226 32.9956 10.3752C32.9956 11.3981 32.3488 12.4134 30.9799 12.4134H25.8128C25.1659 12.4134 24.8952 12.609 24.8952 13.3311V15.7906H30.3632C31.529 15.7906 32.1307 16.836 32.1307 17.8062C32.1307 18.7765 31.5591 19.8671 30.3632 19.8671H24.8952H24.8877Z" fill="#F15F0B"/>
<path d="M39.2763 19.8671V25.9819C39.2763 27.2756 38.0052 27.9224 36.8921 27.945C35.7263 27.9675 34.6056 27.3508 34.6056 25.9819V11.541C34.6056 9.05897 35.5758 8.26172 38.2083 8.26172H45.3686C46.7149 8.26172 47.3843 9.35226 47.3843 10.3752C47.3843 11.3981 46.7375 12.4134 45.3686 12.4134H40.2015C39.5546 12.4134 39.2839 12.609 39.2839 13.3311V15.7906H44.7519C45.9177 15.7906 46.5194 16.836 46.5194 17.8062C46.5194 18.7765 45.9477 19.8671 44.7519 19.8671H39.2839H39.2763Z" fill="#F15F0B"/>
<path d="M49.1427 9.9152C49.1427 8.6441 50.3386 8.02734 51.4517 8.02734C52.5649 8.02734 53.836 8.65162 53.836 9.9152V25.9732C53.836 27.2894 52.595 27.9588 51.4517 27.9588C50.3085 27.9588 49.1427 27.2894 49.1427 25.9732V9.9152Z" fill="#F15F0B"/>
<path d="M69.7525 9.22113C71.7156 10.5148 70.0233 13.8693 67.6165 12.6509C66.9922 12.3275 65.9016 12.0041 65.1044 12.0041C62.4719 12.0041 60.3057 13.4181 60.3057 17.4721C60.3057 21.5261 62.4192 23.5342 65.33 23.5342C66.3002 23.5342 67.4435 23.2334 68.2407 22.7896C70.3016 21.6464 72.4452 24.7301 70.2264 26.445C69.4592 27.0392 67.3156 27.8364 65.1796 27.8364C59.2603 27.8364 55.5372 24.3089 55.5372 17.4946C55.5372 10.6803 59.862 7.97266 64.7809 7.97266C66.7966 7.97266 68.7597 8.56677 69.7525 9.2136V9.22113Z" fill="#F15F0B"/>
<path d="M72.7835 11.5084C72.7835 9.01885 73.7763 8.25171 76.3637 8.25171H83.5465C84.8928 8.25171 85.5622 9.31967 85.5622 10.3426C85.5622 11.3655 84.9154 12.4035 83.5465 12.4035H78.3794C77.71 12.4035 77.4618 12.629 77.4618 13.3511V15.412H82.8094C84.0053 15.412 84.5469 16.48 84.5469 17.4729C84.5469 18.4657 83.9978 19.4585 82.8094 19.4585H77.4618V22.467C77.4618 23.2116 77.6573 23.3846 78.4095 23.3846H83.8022C85.0207 23.3846 85.645 24.4752 85.645 25.4756C85.645 26.4759 85.0508 27.5138 83.8549 27.5138H76.2508C73.5131 27.5138 72.7986 26.7467 72.7986 24.1593V11.5084H72.7835Z" fill="#F15F0B"/>
<path d="M101.092 9.22113C103.055 10.5148 101.363 13.8693 98.9563 12.6509C98.332 12.3275 97.2414 12.0041 96.4442 12.0041C93.8117 12.0041 91.6456 13.4181 91.6456 17.4721C91.6456 21.5261 93.7591 23.5342 96.6698 23.5342C97.6401 23.5342 98.7833 23.2334 99.5806 22.7896C101.641 21.6464 103.785 24.7301 101.566 26.445C100.799 27.0392 98.6554 27.8364 96.5194 27.8364C90.6001 27.8364 86.8771 24.3089 86.8771 17.4946C86.8771 10.6803 91.2018 7.97266 96.1208 7.97266C98.1365 7.97266 100.1 8.56677 101.092 9.2136V9.22113Z" fill="#F15F0B"/>
<path d="M103.651 17.818C103.651 10.733 107.998 7.97266 112.45 7.97266C116.903 7.97266 121.273 10.387 121.273 17.818C121.273 24.8505 116.775 27.8364 112.45 27.8364C108.126 27.8364 103.651 25.0761 103.651 17.818ZM116.377 17.818C116.377 13.3654 114.414 12.1469 112.45 12.1469C110.39 12.1469 108.547 13.388 108.547 17.818C108.547 22.2481 110.412 23.6847 112.398 23.6847C114.383 23.6847 116.377 22.3684 116.377 17.818Z" fill="#F15F0B"/>
<path d="M127.29 15.0356V25.9715C127.29 27.2878 126.094 27.9346 125.003 27.9346C123.913 27.9346 122.815 27.2878 122.815 25.9715V10.8086C122.815 9.3194 124.01 8.17616 125.65 8.17616C127.764 8.17616 128.884 9.04863 129.749 11.0869L133.826 20.7066V9.92106C133.826 8.64996 134.992 8.0332 136.135 8.0332C137.278 8.0332 138.474 8.65748 138.474 9.92106V25.1066C138.474 26.6259 137.105 27.7691 135.488 27.7691C133.397 27.7691 132.329 26.8214 131.359 24.5651L127.282 15.043L127.29 15.0356Z" fill="#F15F0B"/>
</svg>
