<svg width="149" height="37" viewBox="0 0 149 37" fill="none" xmlns="http://www.w3.org/2000/svg">
<g clip-path="url(#clip0_267_8081)">
<path d="M13.8667 19.6595H11.5981V3.61119H13.8667V19.6595ZM0.944751 10.4358C0.944751 9.29627 1.125 8.29765 1.4855 7.43992C1.84599 6.57804 2.34738 5.91298 2.98964 5.44475C3.63191 4.97652 4.36119 4.7424 5.17749 4.7424C5.98135 4.7424 6.70235 4.97652 7.34047 5.44475C7.97859 5.91298 8.47997 6.57804 8.84461 7.43992C9.20925 8.29765 9.39157 9.29627 9.39157 10.4358C9.39157 11.5836 9.20925 12.5905 8.84461 13.4565C8.47997 14.3225 7.97859 14.9896 7.34047 15.4579C6.70235 15.922 5.98135 16.154 5.17749 16.154C4.36119 16.154 3.63191 15.922 2.98964 15.4579C2.34738 14.9896 1.84599 14.3246 1.4855 13.4627C1.125 12.5967 0.944751 11.5877 0.944751 10.4358ZM3.11395 10.4358C3.10981 11.2189 3.19268 11.8881 3.36257 12.4434C3.53246 12.9945 3.77279 13.413 4.08356 13.6989C4.39434 13.9807 4.75898 14.1215 5.17749 14.1215C5.58771 14.1215 5.94613 13.9807 6.25276 13.6989C6.55939 13.413 6.79765 12.9945 6.96754 12.4434C7.13743 11.8881 7.22238 11.2189 7.22238 10.4358C7.22238 9.66091 7.13743 8.99793 6.96754 8.44682C6.79765 7.89572 6.55939 7.47928 6.25276 7.19751C5.94613 6.9116 5.58771 6.76865 5.17749 6.76865C4.75898 6.76865 4.39434 6.9116 4.08356 7.19751C3.77279 7.47928 3.53246 7.89572 3.36257 8.44682C3.19268 8.99793 3.10981 9.66091 3.11395 10.4358ZM29.9092 12.9965H15.3152V11.2065H18.597V9.2797C18.0086 9.01865 17.5569 8.68923 17.242 8.29144C16.9271 7.89365 16.7717 7.44199 16.7759 6.93646C16.7759 6.30249 17.0121 5.75345 17.4844 5.28936C17.9609 4.82528 18.6364 4.46892 19.5107 4.2203C20.3891 3.97168 21.4188 3.84738 22.5998 3.84738C23.7766 3.84738 24.8021 3.97168 25.6764 4.2203C26.5507 4.46892 27.2261 4.82528 27.7027 5.28936C28.1792 5.75345 28.4174 6.30249 28.4174 6.93646C28.4133 7.45028 28.2496 7.90815 27.9264 8.31008C27.6074 8.70787 27.1453 9.03729 26.5404 9.29834V11.2065H29.9092V12.9965ZM16.981 16.7072C16.981 16.0939 17.2027 15.5718 17.646 15.1409C18.0935 14.7099 18.7358 14.3847 19.5728 14.1651C20.414 13.9413 21.4168 13.8294 22.5811 13.8294C23.733 13.8294 24.7255 13.9413 25.5583 14.1651C26.3953 14.3847 27.0355 14.7099 27.4789 15.1409C27.9264 15.5718 28.1522 16.0939 28.1564 16.7072C28.1522 17.3246 27.9264 17.8488 27.4789 18.2797C27.0355 18.7148 26.3974 19.0442 25.5645 19.268C24.7317 19.4917 23.7372 19.6015 22.5811 19.5974C21.4126 19.6015 20.4098 19.4917 19.5728 19.268C18.7358 19.0442 18.0935 18.7148 17.646 18.2797C17.2027 17.8488 16.981 17.3246 16.981 16.7072ZM19.1067 6.93646C19.1025 7.37569 19.3988 7.70718 19.9955 7.93094C20.5922 8.1547 21.4603 8.26657 22.5998 8.26657C23.731 8.26657 24.597 8.1547 25.1978 7.93094C25.8028 7.70718 26.1053 7.37569 26.1053 6.93646C26.1053 6.49309 25.8028 6.15539 25.1978 5.92334C24.5929 5.6913 23.7268 5.57528 22.5998 5.57528C21.4644 5.57528 20.5963 5.6913 19.9955 5.92334C19.3988 6.15539 19.1025 6.49309 19.1067 6.93646ZM19.2683 16.7072C19.26 17.1091 19.5293 17.4137 20.0763 17.6209C20.6232 17.8239 21.4416 17.9254 22.5314 17.9254C23.6419 17.9254 24.481 17.8239 25.0487 17.6209C25.6163 17.4178 25.9022 17.1133 25.9064 16.7072C25.9022 16.3094 25.6226 16.0152 25.0673 15.8246C24.5121 15.6298 23.6833 15.5283 22.5811 15.52C21.4665 15.5283 20.6336 15.6298 20.0825 15.8246C19.5355 16.0152 19.2641 16.3094 19.2683 16.7072ZM24.309 11.2065V9.85773C23.7952 9.92403 23.2255 9.95718 22.5998 9.95718C21.9616 9.95718 21.3836 9.92403 20.8656 9.85773V11.2065H24.309ZM36.0566 7.97445C36.0524 8.81146 36.1975 9.65262 36.4917 10.4979C36.7858 11.3432 37.2292 12.116 37.8218 12.8163C38.4143 13.5124 39.1312 14.0552 39.9723 14.4448L38.723 16.2037C37.857 15.8059 37.1049 15.2279 36.4668 14.4696C35.8328 13.7072 35.3314 12.8287 34.9626 11.8343C34.5897 12.9323 34.0738 13.8978 33.415 14.7307C32.7562 15.5635 31.9792 16.1913 31.0842 16.614L29.7789 14.8425C30.6325 14.4448 31.3618 13.8791 31.9668 13.1457C32.5718 12.4081 33.0276 11.5898 33.3342 10.6906C33.6408 9.78729 33.7962 8.88191 33.8004 7.97445V6.9924H30.4129V5.15884H39.2762V6.9924H36.0566V7.97445ZM40.5255 3.61119H42.7693V9.72721H45.1312V11.5981H42.7693V19.6222H40.5255V3.61119ZM53.4726 4.86671C53.4726 5.51726 53.6902 6.15539 54.1253 6.78108C54.5603 7.40262 55.1985 7.9413 56.0396 8.3971C56.8849 8.8529 57.8918 9.15331 59.0603 9.29834L58.184 11.107C56.8124 10.9123 55.6211 10.5145 54.6101 9.91367C53.599 9.3087 52.8262 8.56284 52.2917 7.6761C51.7572 8.56284 50.9864 9.3087 49.9795 9.91367C48.9768 10.5145 47.7958 10.9123 46.4367 11.107L45.5541 9.29834C46.7143 9.15331 47.713 8.8529 48.55 8.3971C49.3911 7.9413 50.0272 7.40262 50.4581 6.78108C50.8932 6.15539 51.1128 5.51726 51.117 4.86671V4.08978H53.4726V4.86671ZM44.9885 12.3191H59.5824V14.1464H53.3483V19.6222H51.1294V14.1464H44.9885V12.3191ZM63.5644 13.6616L68.9532 5.27072H72.2722V13.6243H73.8758V15.7438H72.2722V18H69.7488V15.7438H63.5644V13.6616ZM69.7861 13.6243V8.16713H69.668L66.2308 13.5249V13.6243H69.7861ZM87.845 15.3957H85.6075V10.1685H81.6358V8.40953H85.6075V7.17887H81.6358V5.41989H85.6075V3.63605H87.845V15.3957ZM75.2587 4.63674H77.4776V11.48C78.5177 11.4675 79.5018 11.424 80.43 11.3494C81.3623 11.2707 82.3029 11.1464 83.2518 10.9765L83.4755 12.7852C82.3651 12.9924 81.267 13.1333 80.1813 13.2079C79.0957 13.2825 77.8816 13.3198 76.5391 13.3198H75.2587V4.63674ZM77.2041 14.3391H79.4666V17.5338H88.2242V19.3425H77.2041V14.3391ZM106.11 15.3336H103.873V11.5421H100.205C99.8159 11.9565 99.3518 12.2776 98.8131 12.5055C98.2745 12.7334 97.6985 12.8474 97.0852 12.8474C96.2855 12.8474 95.5604 12.6692 94.9098 12.3128C94.2593 11.9523 93.7475 11.4572 93.3746 10.8273C93.0058 10.1975 92.8235 9.49309 92.8276 8.71409C92.8235 7.9268 93.0058 7.21823 93.3746 6.5884C93.7475 5.95442 94.2593 5.45925 94.9098 5.1029C95.5604 4.7424 96.2855 4.56215 97.0852 4.56215C97.6985 4.56215 98.2745 4.67818 98.8131 4.91022C99.356 5.13812 99.8221 5.45925 100.212 5.87362H103.873V3.63605H106.11V15.3336ZM94.9533 8.71409C94.9533 9.15331 95.0424 9.53453 95.2206 9.85773C95.4029 10.1809 95.6536 10.4296 95.9727 10.6036C96.2959 10.7735 96.6667 10.8605 97.0852 10.8646C97.4789 10.8605 97.8332 10.7735 98.1481 10.6036C98.4671 10.4296 98.7178 10.1809 98.9002 9.85773C99.0866 9.53039 99.1819 9.14917 99.1861 8.71409C99.1819 8.27486 99.0866 7.89365 98.9002 7.57044C98.7178 7.24309 98.4671 6.9924 98.1481 6.81837C97.8332 6.64434 97.4789 6.55732 97.0852 6.55732C96.6667 6.55732 96.2959 6.64434 95.9727 6.81837C95.6536 6.9924 95.4029 7.24102 95.2206 7.56423C95.0424 7.88743 94.9533 8.27072 94.9533 8.71409ZM95.4941 14.1588H97.7316V17.5338H106.489V19.3425H95.4941V14.1588ZM101.187 7.66989C101.274 7.99724 101.318 8.3453 101.318 8.71409C101.318 9.0663 101.277 9.40815 101.194 9.73964H103.873V7.66989H101.187ZM122.059 13.1954H107.465V11.3992H113.625V9.28591H115.85V11.3992H122.059V13.1954ZM108.211 8.48412C109.347 8.34323 110.32 8.06768 111.133 7.65746C111.945 7.24724 112.556 6.75829 112.966 6.19061C113.38 5.62293 113.59 5.03039 113.594 4.41298V3.88467H115.875V4.41298C115.875 5.0511 116.078 5.65401 116.484 6.22168C116.89 6.78936 117.499 7.27417 118.311 7.6761C119.124 8.07389 120.11 8.34323 121.27 8.48412L120.406 10.2369C119.072 10.038 117.916 9.66713 116.938 9.12431C115.964 8.57735 115.222 7.89986 114.713 7.09185C114.199 7.89986 113.453 8.57735 112.475 9.12431C111.501 9.66713 110.347 10.038 109.013 10.2369L108.211 8.48412ZM109.081 14.3329H120.282V19.6222H118.038V16.0732H109.081V14.3329ZM131.735 18H129.087V7.78798H129.012L126.091 9.62155V7.2721L129.242 5.27072H131.735V18ZM138.657 4.28246C139.465 4.28246 140.19 4.42541 140.832 4.71133C141.474 4.99724 141.976 5.39917 142.336 5.91713C142.701 6.43508 142.883 7.02555 142.883 7.68854C142.883 8.34323 142.701 8.92956 142.336 9.44751C141.976 9.96133 141.474 10.3633 140.832 10.6533C140.19 10.9392 139.465 11.0801 138.657 11.076C137.857 11.0801 137.136 10.9392 136.494 10.6533C135.855 10.3633 135.356 9.96133 134.996 9.44751C134.635 8.92956 134.457 8.34323 134.461 7.68854C134.457 7.02555 134.635 6.43508 134.996 5.91713C135.356 5.39917 135.855 4.99724 136.494 4.71133C137.132 4.42541 137.853 4.28246 138.657 4.28246ZM133.479 12.058C135.385 12.0539 137.194 12.0145 138.905 11.9399C140.616 11.8612 142.226 11.7058 143.735 11.4738L143.89 13.1271C142.705 13.3633 141.371 13.5435 139.887 13.6678V19.1436H137.637V13.8046C136.779 13.8419 135.534 13.8688 133.902 13.8854H133.753L133.479 12.058ZM136.624 7.68854C136.624 8.01174 136.709 8.29351 136.879 8.53384C137.053 8.77003 137.293 8.95028 137.6 9.07459C137.907 9.19889 138.259 9.25898 138.657 9.25483C139.071 9.25898 139.436 9.19889 139.75 9.07459C140.065 8.95028 140.312 8.77003 140.49 8.53384C140.668 8.29765 140.757 8.01588 140.757 7.68854C140.757 7.3529 140.668 7.06492 140.49 6.82458C140.312 6.58011 140.065 6.39365 139.75 6.26519C139.436 6.13674 139.071 6.07459 138.657 6.07873C138.259 6.07459 137.907 6.13674 137.6 6.26519C137.293 6.39365 137.053 6.58011 136.879 6.82458C136.709 7.06492 136.624 7.3529 136.624 7.68854ZM144.704 3.63605H146.929V19.6098H144.704V3.63605Z" fill="#F55B08"/>
<path d="M1.23142 31.5359C1.23142 30.5083 1.36678 29.5594 1.6375 28.6892C1.91098 27.8191 2.32258 27.0124 2.8723 26.2693H4.27286C3.99385 26.6312 3.74109 27.1022 3.51457 27.6823C3.28805 28.2597 3.10849 28.8867 2.97589 29.5635C2.84606 30.2376 2.78114 30.895 2.78114 31.5359C2.78114 32.1796 2.84606 32.8398 2.97589 33.5166C3.10849 34.1906 3.28805 34.8163 3.51457 35.3936C3.74109 35.971 3.99385 36.4406 4.27286 36.8025H2.8723C2.32258 36.0594 1.91098 35.2541 1.6375 34.3867C1.36678 33.5166 1.23142 32.5663 1.23142 31.5359ZM13.676 25.4613V31.9378H12.437V25.4613H13.676ZM12.7934 28.1257V29.1782H10.9743V28.1257H12.7934ZM11.3307 25.6561V31.5856H10.1166V25.6561H11.3307ZM5.7865 30.3467C6.61799 30.3467 7.31136 30.3301 7.86661 30.297C8.42462 30.261 8.99368 30.1892 9.57379 30.0815L9.6981 31.1215C9.09865 31.232 8.51302 31.3052 7.94119 31.3412C7.37213 31.3743 6.6539 31.3923 5.7865 31.395H5.0655V30.3467H5.7865ZM9.07655 26.1948V29.232H6.32931V31.1588H5.0655V28.2707H7.82103V27.2307H5.04893V26.1948H9.07655ZM10.1 32.087C10.8348 32.087 11.4743 32.1671 12.0185 32.3273C12.5655 32.4848 12.9868 32.7113 13.2824 33.0069C13.5807 33.2997 13.7299 33.6492 13.7299 34.0552C13.7299 34.4613 13.5807 34.8122 13.2824 35.1077C12.9868 35.4061 12.5655 35.634 12.0185 35.7914C11.4743 35.9517 10.8348 36.0304 10.1 36.0276C9.3597 36.0304 8.71605 35.9517 8.16909 35.7914C7.62213 35.634 7.20224 35.4061 6.90942 35.1077C6.61661 34.8122 6.47158 34.4613 6.47434 34.0552C6.47158 33.6464 6.61661 33.2942 6.90942 32.9986C7.20224 32.703 7.62213 32.4779 8.16909 32.3232C8.71605 32.1657 9.3597 32.087 10.1 32.087ZM10.1 33.0939C9.61108 33.0939 9.19119 33.1312 8.84036 33.2058C8.4923 33.2776 8.2271 33.3867 8.04478 33.5331C7.86246 33.6768 7.7713 33.8508 7.7713 34.0552C7.7713 34.2652 7.86246 34.4434 8.04478 34.5898C8.2271 34.7334 8.49092 34.8425 8.83622 34.9171C9.18429 34.989 9.60556 35.0249 10.1 35.0249C10.589 35.0249 11.0061 34.989 11.3514 34.9171C11.6967 34.8425 11.9605 34.7334 12.1429 34.5898C12.3279 34.4434 12.4219 34.2652 12.4246 34.0552C12.4219 33.8508 12.3279 33.6768 12.1429 33.5331C11.9578 33.3867 11.6912 33.2776 11.3431 33.2058C10.9978 33.1312 10.5835 33.0939 10.1 33.0939ZM20.368 26.4972C20.3653 27.6519 20.2216 28.7003 19.9371 29.6423C19.6526 30.5815 19.1498 31.4558 18.4288 32.2652C17.7078 33.0746 16.7175 33.7873 15.4578 34.4033L14.7658 33.3964C15.8432 32.866 16.6995 32.2707 17.3349 31.6105C17.9702 30.9475 18.4247 30.2141 18.6981 29.4102C18.9716 28.6036 19.1084 27.6851 19.1084 26.6547V26.4972H20.368ZM19.7548 26.4972V27.5497H15.3749V26.4972H19.7548ZM19.0213 30.1146L15.0062 30.4793L14.8363 29.3564L19.0213 29.1036V30.1146ZM23.4716 25.453V36.0359H22.1581V25.453H23.4716ZM32.9979 25.453V32.4392H31.6885V25.453H32.9979ZM34.4772 28.2873V29.3522H32.6333V28.2873H34.4772ZM25.9123 30.1105C26.7217 30.1105 27.3957 30.1008 27.9344 30.0815C28.4758 30.0622 28.9689 30.0304 29.4137 29.9862C29.8612 29.9392 30.3073 29.8688 30.7521 29.7749L30.8722 30.8273C30.1899 30.9572 29.4855 31.0483 28.759 31.1008C28.0352 31.1506 27.0863 31.1727 25.9123 31.1671H25.0504V30.1105H25.9123ZM29.7907 26.2196V27.2762H26.3432V30.7445H25.0504V26.2196H29.7907ZM30.1429 32.203C30.1402 32.8412 29.9703 33.4227 29.6333 33.9475C29.299 34.4724 28.8266 34.9102 28.2161 35.261C27.6084 35.6146 26.904 35.8564 26.1029 35.9862L25.5932 34.9669C26.2893 34.8619 26.8943 34.674 27.4081 34.4033C27.9247 34.1326 28.3211 33.808 28.5974 33.4296C28.8736 33.0511 29.0117 32.6423 29.0117 32.203V31.8881H30.1429V32.203ZM30.3045 32.203C30.3045 32.6423 30.4427 33.0511 30.7189 33.4296C30.9979 33.808 31.3971 34.1326 31.9164 34.4033C32.4358 34.674 33.0463 34.8619 33.7479 34.9669L33.23 35.9862C32.4288 35.8564 31.723 35.6146 31.1126 35.261C30.5048 34.9102 30.0338 34.4724 29.6996 33.9475C29.3681 33.4227 29.2037 32.8412 29.2065 32.203V31.8881H30.3045V32.203ZM42.3957 28.1506V29.2196H40.1706V28.1506H42.3957ZM40.2245 26.0083C40.2245 26.9641 40.0532 27.8122 39.7107 28.5525C39.3709 29.2928 38.8433 29.9351 38.1278 30.4793C37.4123 31.0207 36.4924 31.4627 35.3681 31.8052L34.8585 30.761C35.8087 30.4903 36.5781 30.1492 37.1665 29.7376C37.7549 29.326 38.183 28.855 38.451 28.3246C38.719 27.7942 38.8543 27.2003 38.8571 26.5428V26.0083H40.2245ZM39.6734 26.0083V27.0566H35.3764V26.0083H39.6734ZM38.9524 28.8384L35.0366 29.1285L34.8419 28.0925L38.9524 27.9392V28.8384ZM43.5228 25.4613V31.5152H42.2217V25.4613H43.5228ZM43.5228 32.0249V35.9116H36.5532V32.0249H43.5228ZM37.8294 33.0608V34.8591H42.23V33.0608H37.8294ZM55.9677 25.4613V33.1146H54.6625V25.4613H55.9677ZM56.266 34.7804V35.837H48.9608V34.7804H56.266ZM50.2743 32.3356V35.1948H48.9608V32.3356H50.2743ZM50.1956 26.1575C50.726 26.1575 51.208 26.2721 51.6417 26.5014C52.0782 26.7279 52.4207 27.0414 52.6694 27.442C52.9207 27.8425 53.0464 28.2956 53.0464 28.8011C53.0464 29.3122 52.9207 29.7707 52.6694 30.1768C52.4207 30.5801 52.0796 30.895 51.6459 31.1215C51.2122 31.3481 50.7287 31.4599 50.1956 31.4572C49.6625 31.4599 49.1776 31.3481 48.7412 31.1215C48.3075 30.895 47.9649 30.5801 47.7136 30.1768C47.4649 29.7707 47.3406 29.3122 47.3406 28.8011C47.3406 28.2956 47.4649 27.8425 47.7136 27.442C47.9649 27.0414 48.3089 26.7279 48.7453 26.5014C49.1818 26.2721 49.6652 26.1575 50.1956 26.1575ZM50.1956 27.2928C49.8945 27.2928 49.6238 27.355 49.3834 27.4793C49.1431 27.6036 48.9539 27.7804 48.8158 28.0097C48.6804 28.239 48.6127 28.5028 48.6127 28.8011C48.6127 29.1077 48.6804 29.3757 48.8158 29.605C48.9539 29.8343 49.1417 30.011 49.3793 30.1354C49.6196 30.2597 49.8917 30.3218 50.1956 30.3218C50.4912 30.3218 50.7578 30.2597 50.9953 30.1354C51.2329 30.011 51.4207 29.8343 51.5589 29.605C51.697 29.3757 51.766 29.1077 51.766 28.8011C51.766 28.5028 51.697 28.239 51.5589 28.0097C51.4207 27.7804 51.2329 27.6036 50.9953 27.4793C50.7578 27.355 50.4912 27.2928 50.1956 27.2928ZM66.8117 30.384V31.4406H57.1611V30.384H66.8117ZM61.9719 32.1409C62.7316 32.1409 63.3863 32.2182 63.936 32.3729C64.4885 32.5249 64.9111 32.7472 65.2039 33.0401C65.4967 33.3301 65.6432 33.6796 65.6432 34.0884C65.6432 34.5 65.4967 34.8508 65.2039 35.1409C64.9111 35.4309 64.4898 35.6519 63.9401 35.8039C63.3904 35.9558 62.7343 36.0304 61.9719 36.0276C61.2067 36.0304 60.5479 35.9558 59.9954 35.8039C59.4429 35.6519 59.0188 35.4309 58.7233 35.1409C58.4304 34.8508 58.284 34.5 58.284 34.0884C58.284 33.6796 58.4304 33.3301 58.7233 33.0401C59.0188 32.75 59.4429 32.5276 59.9954 32.3729C60.5506 32.2182 61.2095 32.1409 61.9719 32.1409ZM61.9719 33.1561C61.4553 33.1588 61.0216 33.1948 60.6708 33.2638C60.32 33.3329 60.0548 33.4365 59.8752 33.5746C59.6956 33.7127 59.6072 33.884 59.61 34.0884C59.6072 34.2901 59.6956 34.4599 59.8752 34.5981C60.0548 34.7362 60.32 34.8398 60.6708 34.9088C61.0244 34.9751 61.4581 35.0069 61.9719 35.0041C62.4829 35.0069 62.9125 34.9751 63.2606 34.9088C63.6114 34.8398 63.878 34.7362 64.0603 34.5981C64.2454 34.4599 64.3393 34.2901 64.3421 34.0884C64.3393 33.8867 64.2454 33.7169 64.0603 33.5787C63.878 33.4378 63.6114 33.3329 63.2606 33.2638C62.9125 33.1948 62.4829 33.1588 61.9719 33.1561ZM62.2578 26.7749C62.255 27.3163 62.081 27.8094 61.7357 28.2541C61.3932 28.6961 60.9056 29.0608 60.273 29.3481C59.6432 29.6354 58.9084 29.8218 58.0686 29.9075L57.6252 28.8881C58.3241 28.8191 58.936 28.6796 59.4608 28.4696C59.9885 28.2597 60.3932 28.0069 60.6749 27.7113C60.9595 27.4157 61.1017 27.1036 61.1017 26.7749V26.4765H62.2578V26.7749ZM62.8628 26.7749C62.86 27.1036 62.9981 27.4157 63.2771 27.7113C63.5589 28.0041 63.965 28.2569 64.4954 28.4696C65.0285 28.6796 65.6501 28.8191 66.36 28.8881L65.9001 29.9075C65.0603 29.8218 64.3227 29.6354 63.6874 29.3481C63.0548 29.0608 62.5644 28.6961 62.2164 28.2541C61.8711 27.8094 61.6984 27.3163 61.6984 26.7749V26.4765H62.8628V26.7749ZM65.9456 25.9586V27.0152H58.0437V25.9586H65.9456ZM78.4734 25.453V36.0608H77.1599V25.453H78.4734ZM71.5204 26.3149V28.9627H74.0853V26.3149H75.374V33.558H70.2151V26.3149H71.5204ZM71.5204 32.489H74.0853V29.982H71.5204V32.489ZM89.3547 33.645V34.7141H79.671V33.645H89.3547ZM84.921 27.6202C84.921 28.3439 84.7345 29.0097 84.3616 29.6174C83.9886 30.2251 83.4748 30.7376 82.8201 31.1547C82.1682 31.5718 81.432 31.8564 80.6116 32.0083L80.0936 30.9641C80.7953 30.8508 81.4292 30.6285 81.9955 30.297C82.5646 29.9655 83.0094 29.5663 83.3298 29.0994C83.6502 28.6298 83.8105 28.1367 83.8105 27.6202V26.8992H84.921V27.6202ZM85.1779 27.6202C85.1751 28.1367 85.3353 28.6257 85.6585 29.087C85.9817 29.5456 86.432 29.9378 87.0094 30.2638C87.5867 30.5898 88.2386 30.808 88.9652 30.9185L88.4431 31.9544C87.606 31.8025 86.856 31.5235 86.1931 31.1174C85.5328 30.7086 85.0149 30.2044 84.6392 29.605C84.2663 29.0028 84.0798 28.3412 84.0798 27.6202V26.8992H85.1779V27.6202ZM88.5135 26.4061V27.4544H80.4748V26.4061H88.5135ZM97.2649 29.3398L90.6724 29.6713L90.5191 28.5525L97.2649 28.3494V29.3398ZM97.5177 26.0704V27.1105H90.8423V26.0704H97.5177ZM99.3326 31.076V32.1326H89.6821V31.076H99.3326ZM95.1682 31.8964V36.0193H93.8547V31.8964H95.1682ZM98.2014 27.0318V27.0815C98.2014 27.5925 98.1931 28.0428 98.1765 28.4323C98.1627 28.8191 98.124 29.261 98.0605 29.7583C97.9997 30.2555 97.9044 30.7901 97.7746 31.3619L96.5191 31.2086C96.6517 30.6727 96.7484 30.1657 96.8091 29.6878C96.8727 29.2099 96.9127 28.7873 96.9293 28.4199C96.9459 28.0497 96.9555 27.6064 96.9583 27.0898V27.0318V26.0704H98.2014V27.0318ZM108.457 25.8757V26.9282H100.559V25.8757H108.457ZM108.399 28.9544V29.9738H100.617V28.9544H108.399ZM103.315 26.3066V29.4682H102.018V26.3066H103.315ZM106.998 26.3066V29.4682H105.693V26.3066H106.998ZM109.344 31.0594V32.0953H99.6931V31.0594H109.344ZM105.163 29.6298V31.6809H103.858V29.6298H105.163ZM108.254 34.7804V35.837H100.882V34.7804H108.254ZM102.192 32.8619V35.1575H100.882V32.8619H102.192ZM119.376 30.9392V31.9751H109.692V30.9392H119.376ZM115.286 31.4779V33.7983H113.997V31.4779H115.286ZM118.306 34.7804V35.837H110.864V34.7804H118.306ZM112.157 32.9199V35.2113H110.864V32.9199H112.157ZM112.24 25.7887V26.982H116.815V25.7887H118.112V30.0981H110.951V25.7887H112.24ZM112.24 29.0663H116.815V27.9558H112.24V29.0663ZM122.558 26.2196C123.088 26.2224 123.562 26.3771 123.979 26.6837C124.396 26.9876 124.722 27.4227 124.957 27.989C125.192 28.5552 125.311 29.2127 125.313 29.9613C125.311 30.7155 125.192 31.3757 124.957 31.942C124.722 32.5083 124.396 32.9448 123.979 33.2514C123.562 33.558 123.088 33.7113 122.558 33.7113C122.025 33.7141 121.55 33.5622 121.132 33.2555C120.715 32.9461 120.389 32.5083 120.155 31.942C119.923 31.3757 119.806 30.7155 119.806 29.9613C119.806 29.2127 119.923 28.5552 120.155 27.989C120.389 27.4227 120.715 26.9876 121.132 26.6837C121.55 26.3771 122.025 26.2224 122.558 26.2196ZM122.558 27.3964C122.262 27.3964 122.001 27.4986 121.775 27.703C121.551 27.9075 121.376 28.203 121.248 28.5898C121.124 28.9738 121.062 29.4309 121.062 29.9613C121.062 30.4945 121.124 30.9558 121.248 31.3453C121.376 31.732 121.551 32.0276 121.775 32.232C122.001 32.4337 122.262 32.5345 122.558 32.5345C122.859 32.5345 123.121 32.4337 123.345 32.232C123.572 32.0276 123.747 31.732 123.871 31.3453C123.996 30.9586 124.058 30.4972 124.058 29.9613C124.058 29.4309 123.996 28.9738 123.871 28.5898C123.747 28.203 123.572 27.9075 123.345 27.703C123.121 27.4986 122.859 27.3964 122.558 27.3964ZM129.581 27.9807V29.0746H127.659V27.9807H129.581ZM129.581 31.1133V32.1782H127.659V31.1133H129.581ZM128.011 25.453V36.0359H126.706V25.453H128.011ZM132.764 31.5401C132.764 32.5677 132.627 33.5166 132.354 34.3867C132.083 35.2569 131.673 36.0635 131.123 36.8066H129.722C130.001 36.4448 130.254 35.9738 130.481 35.3936C130.707 34.8163 130.885 34.1906 131.015 33.5166C131.148 32.8398 131.214 32.1809 131.214 31.5401C131.214 30.8964 131.148 30.2376 131.015 29.5635C130.885 28.8867 130.707 28.2597 130.481 27.6823C130.254 27.105 130.001 26.6354 129.722 26.2735H131.123C131.673 27.0166 132.083 27.8232 132.354 28.6934C132.627 29.5608 132.764 30.5097 132.764 31.5401Z" fill="#F55B08"/>
</g>
<defs>
<clipPath id="clip0_267_8081">
<rect width="149" height="37" fill="white"/>
</clipPath>
</defs>
</svg>
