<svg width="130" height="33" viewBox="0 0 130 33" fill="none" xmlns="http://www.w3.org/2000/svg">
<path d="M31.249 11.2855C31.249 11.2359 31.2341 11.1863 31.2242 11.1417C31.2242 11.1268 31.2242 11.1118 31.2142 11.0969C31.1944 11.0324 31.1696 10.9729 31.1398 10.9133C31.1299 10.8934 31.1051 10.8786 31.0951 10.8587C31.0604 10.8091 31.0207 10.7645 30.976 10.7198C30.9313 10.6751 30.8867 10.6354 30.837 10.6006C30.8172 10.5857 30.8073 10.5659 30.7824 10.556L24.7868 7.22063C24.9307 6.78386 25.02 6.32723 25.02 5.85075C25.02 4.72408 24.5982 3.6669 23.8388 2.87277C22.2604 1.22991 19.6994 1.22991 18.126 2.87277C18.0118 2.99189 17.8977 3.15073 17.7786 3.32444L16.0513 2.3665C16.0116 2.34168 15.967 2.33177 15.9223 2.31688C15.9074 2.31191 15.8875 2.30197 15.8727 2.29701C15.7784 2.26723 15.6791 2.25733 15.5798 2.26726C15.555 2.26726 15.5352 2.27223 15.5153 2.27719C15.4111 2.29208 15.3118 2.31687 15.2125 2.37147L13.4853 3.32941C13.3662 3.15073 13.252 2.99189 13.1379 2.87773C11.5645 1.23488 8.99848 1.23488 7.42015 2.87773C6.29348 4.05404 5.98575 5.75149 6.47215 7.2256L0.476477 10.5609C0.476477 10.5609 0.471515 10.5659 0.466552 10.5709C0.461589 10.5709 0.456626 10.5709 0.451663 10.5758C0.362323 10.6304 0.292835 10.6999 0.228312 10.7744C0.213422 10.7942 0.198534 10.8141 0.183644 10.8389C0.129047 10.9133 0.0893409 10.9928 0.0595611 11.0821C0.0545977 11.097 0.0446707 11.1119 0.0397074 11.1267C0.0148908 11.2111 0 11.2955 0 11.3849V22.2098C0 22.5274 0.158828 22.8253 0.41692 22.999L1.65278 23.8179V15.9313C1.65278 15.1322 2.58092 14.209 3.77708 14.9237L12.5969 20.2195C13.4357 20.7307 13.9866 21.0037 13.9866 22.453V31.9975L15.153 32.7717C15.3019 32.866 15.4657 32.9157 15.6344 32.9157C15.7833 32.9157 15.9322 32.876 16.0662 32.8015C16.3541 32.6377 16.5278 32.325 16.5278 31.9826V20.8002L17.9324 19.9565L17.9076 30.6177C17.9076 30.7517 18.0118 30.8609 18.1409 30.8609C18.2699 30.8609 18.3742 30.7517 18.3742 30.6226L18.399 19.6785L19.8235 18.8199L19.7986 29.3421C19.7986 29.7491 20.1113 30.0767 20.5034 30.0767C20.8906 30.0767 21.2082 29.7491 21.2082 29.3421L21.233 17.9662L22.3498 17.2912V27.8779C22.3498 28.3941 22.7518 28.811 23.2432 28.811C23.7345 28.811 24.1366 28.3941 24.1366 27.8779V16.2092L25.7943 15.2115L25.7695 26.2698C25.7695 26.4733 25.9283 26.6371 26.1219 26.6371C26.3155 26.6371 26.4743 26.4733 26.4743 26.2698L26.4991 14.7847L27.9236 13.9261L27.8988 24.9843C27.8988 25.3913 28.2114 25.7189 28.6035 25.7189C28.9907 25.7189 29.3083 25.3913 29.3083 24.9843L29.3332 13.0724L30.5591 12.3329V23.7385C30.5591 23.942 30.7179 24.1058 30.9115 24.1058C31.105 24.1058 31.2639 23.942 31.2639 23.7385V11.3749C31.2639 11.3451 31.254 11.3153 31.249 11.2855ZM19.5008 4.30717C19.5008 4.30717 19.5157 4.29723 19.5207 4.29226C20.3347 3.46339 21.645 3.46341 22.454 4.30717C22.8461 4.71912 23.0645 5.26508 23.0645 5.84578C23.0645 5.97979 23.0496 6.11383 23.0297 6.24287C22.9553 6.67468 22.7568 7.07171 22.454 7.38936C22.3498 7.49856 22.1761 7.62264 21.9477 7.76161C20.9749 8.34728 18.9995 9.15632 17.1631 9.82637C17.6247 8.45153 18.1508 7.00224 18.6223 5.91528C18.9598 5.141 19.2676 4.55038 19.4959 4.31214L19.5008 4.30717ZM15.6295 4.24264L16.91 4.95733C16.4534 5.97481 16.0067 7.17097 15.6295 8.25297C15.2522 7.17097 14.8055 5.97481 14.3489 4.95733L15.6295 4.24264ZM8.79995 4.30717C9.20694 3.88032 9.74297 3.67185 10.279 3.67185C10.815 3.67185 11.3312 3.88031 11.7382 4.29226C11.7432 4.29723 11.7531 4.30221 11.7581 4.30717C11.9864 4.54541 12.2941 5.13603 12.6316 5.91031C13.1031 6.99231 13.6342 8.4416 14.0908 9.8214C12.2544 9.15631 10.284 8.34728 9.3062 7.75664C9.07789 7.61767 8.90418 7.49359 8.79995 7.3844C8.48726 7.06178 8.29865 6.65978 8.2242 6.2379C8.10508 5.55793 8.29369 4.82831 8.79995 4.3022V4.30717ZM2.73975 11.4096L7.41022 8.81383C7.41022 8.81383 7.41518 8.82377 7.42015 8.82874C8.31354 9.75687 11.1923 10.9233 13.262 11.6826L8.02567 14.5961L2.73975 11.4146V11.4096ZM15.6295 19.1723L9.85217 15.693L15.6195 12.4867L21.3968 15.6979L15.6295 19.1723ZM23.2233 14.5961L17.9821 11.6826C20.0567 10.9282 22.9404 9.75687 23.8338 8.82874L28.5142 11.4096L23.2184 14.5961H23.2233Z" fill="#7E7E7E"/>
<path d="M2.74219 24.2483L12.8326 31.1969V25.4246C12.8326 24.9332 12.5894 24.4767 12.1874 24.2235L3.55617 18.7192C3.19881 18.4909 2.74219 18.7639 2.74219 19.2007V24.2483Z" fill="#7E7E7E"/>
<path d="M9.43444 21.0339L7.33496 19.7533C7.23073 19.6888 6.62521 19.4258 6.89819 19.0088C7.06198 18.7557 7.35978 18.9394 7.35978 18.9394L9.69253 20.3638C9.69253 20.3638 10.0052 20.5227 9.93574 20.8254C9.85136 21.1828 9.50889 21.0835 9.43444 21.0339Z" fill="#7E7E7E"/>
<path d="M6.48604 18.6535C6.48604 18.857 6.32721 19.0257 6.13364 19.0257C5.94008 19.0257 5.78125 18.862 5.78125 18.6535C5.78125 18.445 5.94008 18.2812 6.13364 18.2812C6.32721 18.2812 6.48604 18.445 6.48604 18.6535Z" fill="#7E7E7E"/>
<path d="M39 16.497C39 11.8215 41.8688 10 44.8071 10C47.7453 10 50.629 11.5932 50.629 16.497C50.629 21.1376 47.661 23.1081 44.8071 23.1081C41.9532 23.1081 39 21.2865 39 16.497ZM47.3979 16.497C47.3979 13.5587 46.1025 12.7546 44.8071 12.7546C43.4471 12.7546 42.2311 13.5736 42.2311 16.497C42.2311 19.4203 43.462 20.3684 44.7723 20.3684C46.0826 20.3684 47.3979 19.4998 47.3979 16.497Z" fill="#7E7E7E"/>
<path d="M54.7267 17.8498V21.8849C54.7267 22.7386 53.888 23.1655 53.1534 23.1803C52.3841 23.1952 51.6445 22.7882 51.6445 21.8849V12.3554C51.6445 10.7175 52.2848 10.1914 54.022 10.1914H58.747C59.6355 10.1914 60.0772 10.9111 60.0772 11.5861C60.0772 12.2611 59.6504 12.9311 58.747 12.9311H55.3372C54.9104 12.9311 54.7317 13.0602 54.7317 13.5367V15.1597H58.34C59.1093 15.1597 59.5064 15.8495 59.5064 16.4898C59.5064 17.1301 59.1292 17.8498 58.34 17.8498H54.7317H54.7267Z" fill="#7E7E7E"/>
<path d="M64.2228 17.8498V21.8849C64.2228 22.7386 63.384 23.1655 62.6495 23.1803C61.8802 23.1952 61.1406 22.7882 61.1406 21.8849V12.3554C61.1406 10.7175 61.7809 10.1914 63.518 10.1914H68.2431C69.1315 10.1914 69.5733 10.9111 69.5733 11.5861C69.5733 12.2611 69.1464 12.9311 68.2431 12.9311H64.8333C64.4065 12.9311 64.2278 13.0602 64.2278 13.5367V15.1597H67.8361C68.6054 15.1597 69.0025 15.8495 69.0025 16.4898C69.0025 17.1301 68.6253 17.8498 67.8361 17.8498H64.2278H64.2228Z" fill="#7E7E7E"/>
<path d="M70.7344 11.281C70.7344 10.4422 71.5235 10.0352 72.2581 10.0352C72.9927 10.0352 73.8315 10.4471 73.8315 11.281V21.8776C73.8315 22.7462 73.0125 23.1879 72.2581 23.1879C71.5037 23.1879 70.7344 22.7462 70.7344 21.8776V11.281Z" fill="#7E7E7E"/>
<path d="M84.3338 10.8239C85.6292 11.6776 84.5125 13.8912 82.9242 13.0872C82.5122 12.8737 81.7926 12.6603 81.2665 12.6603C79.5293 12.6603 78.0999 13.5934 78.0999 16.2687C78.0999 18.9439 79.4946 20.2691 81.4154 20.2691C82.0556 20.2691 82.81 20.0705 83.3362 19.7777C84.6961 19.0233 86.1106 21.0582 84.6465 22.1899C84.1402 22.582 82.7257 23.1081 81.3161 23.1081C77.41 23.1081 74.9531 20.7803 74.9531 16.2835C74.9531 11.7867 77.807 10 81.053 10C82.3832 10 83.6786 10.3921 84.3338 10.8189V10.8239Z" fill="#7E7E7E"/>
<path d="M86.3359 12.3327C86.3359 10.6898 86.9911 10.1836 88.6985 10.1836H93.4384C94.3269 10.1836 94.7686 10.8883 94.7686 11.5633C94.7686 12.2384 94.3418 12.9233 93.4384 12.9233H90.0286C89.5869 12.9233 89.4231 13.0722 89.4231 13.5487V14.9087H92.952C93.7412 14.9087 94.0986 15.6135 94.0986 16.2686C94.0986 16.9238 93.7362 17.5789 92.952 17.5789H89.4231V19.5643C89.4231 20.0556 89.5522 20.1698 90.0485 20.1698H93.6072C94.4112 20.1698 94.8232 20.8895 94.8232 21.5496C94.8232 22.2097 94.4311 22.8946 93.6419 22.8946H88.624C86.8174 22.8946 86.3459 22.3884 86.3459 20.681V12.3327H86.3359Z" fill="#7E7E7E"/>
<path d="M105.017 10.8239C106.313 11.6776 105.196 13.8912 103.608 13.0872C103.196 12.8737 102.476 12.6603 101.95 12.6603C100.213 12.6603 98.7835 13.5934 98.7835 16.2687C98.7835 18.9439 100.178 20.2691 102.099 20.2691C102.739 20.2691 103.494 20.0705 104.02 19.7777C105.38 19.0233 106.794 21.0582 105.33 22.1899C104.824 22.582 103.409 23.1081 102 23.1081C98.0935 23.1081 95.6367 20.7803 95.6367 16.2835C95.6367 11.7867 98.4906 10 101.737 10C103.067 10 104.362 10.3921 105.017 10.8189V10.8239Z" fill="#7E7E7E"/>
<path d="M106.703 16.497C106.703 11.8215 109.572 10 112.51 10C115.448 10 118.332 11.5932 118.332 16.497C118.332 21.1376 115.364 23.1081 112.51 23.1081C109.656 23.1081 106.703 21.2865 106.703 16.497ZM115.101 16.497C115.101 13.5587 113.806 12.7546 112.51 12.7546C111.15 12.7546 109.934 13.5736 109.934 16.497C109.934 19.4203 111.165 20.3684 112.475 20.3684C113.786 20.3684 115.101 19.4998 115.101 16.497Z" fill="#7E7E7E"/>
<path d="M122.305 14.6599V21.8765C122.305 22.7451 121.516 23.172 120.796 23.172C120.076 23.172 119.352 22.7451 119.352 21.8765V11.8706C119.352 10.8878 120.141 10.1334 121.223 10.1334C122.617 10.1334 123.357 10.7091 123.928 12.0542L126.618 18.4022V11.2849C126.618 10.4461 127.387 10.0391 128.142 10.0391C128.896 10.0391 129.685 10.451 129.685 11.2849V21.3057C129.685 22.3083 128.782 23.0628 127.715 23.0628C126.335 23.0628 125.63 22.4374 124.99 20.9484L122.3 14.6648L122.305 14.6599Z" fill="#7E7E7E"/>
</svg>
