<svg width="48" height="48" viewBox="0 0 48 48" fill="none" xmlns="http://www.w3.org/2000/svg">
<path d="M47.3542 14.6158C47.3542 14.5406 47.3317 14.4654 47.3166 14.3977C47.3166 14.3751 47.3166 14.3525 47.3016 14.33C47.2715 14.2322 47.2339 14.1419 47.1888 14.0517C47.1737 14.0216 47.1361 13.999 47.1211 13.9689C47.0684 13.8937 47.0083 13.8261 46.9406 13.7584C46.8729 13.6907 46.8052 13.6305 46.73 13.5778C46.6999 13.5553 46.6848 13.5252 46.6472 13.5102L37.5615 8.45585C37.7796 7.79398 37.915 7.10201 37.915 6.37996C37.915 4.67262 37.2757 3.07058 36.1249 1.86717C33.7331 -0.622389 29.8521 -0.622389 27.4679 1.86717C27.2949 2.04768 27.1219 2.28839 26.9414 2.55163L24.324 1.09998C24.2638 1.06237 24.1961 1.04735 24.1284 1.02478C24.1058 1.01726 24.0757 1.00219 24.0532 0.994669C23.9103 0.949541 23.7598 0.934546 23.6094 0.949589C23.5718 0.949589 23.5417 0.957125 23.5116 0.964646C23.3537 0.98721 23.2033 1.02477 23.0528 1.10751L20.4354 2.55916C20.2549 2.28839 20.0819 2.04769 19.9089 1.8747C17.5247 -0.614861 13.6362 -0.614861 11.2444 1.8747C9.53704 3.65725 9.07071 6.22955 9.8078 8.46338L0.722046 13.5177C0.722046 13.5177 0.714527 13.5252 0.707006 13.5327C0.699485 13.5327 0.691964 13.5328 0.684443 13.5403C0.549059 13.623 0.443757 13.7283 0.34598 13.8411C0.323416 13.8712 0.300855 13.9013 0.278291 13.9389C0.195556 14.0517 0.135386 14.1721 0.0902579 14.3075C0.0827366 14.33 0.0676933 14.3526 0.0601719 14.3751C0.0225653 14.503 0 14.6309 0 14.7663V31.1702C0 31.6516 0.240685 32.1029 0.631794 32.3662L2.5046 33.6071V21.6558C2.5046 20.4449 3.91109 19.0459 5.72372 20.129L19.0891 28.1541C20.3602 28.9288 21.1951 29.3425 21.1951 31.5387V46.0023L22.9626 47.1756C23.1882 47.3185 23.4364 47.3937 23.6922 47.3937C23.9178 47.3937 24.1434 47.3336 24.3465 47.2208C24.7828 46.9726 25.046 46.4987 25.046 45.9797V29.0342L27.1745 27.7556L27.1369 43.9114C27.1369 44.1144 27.2949 44.2799 27.4904 44.2799C27.686 44.2799 27.8439 44.1144 27.8439 43.9189L27.8815 27.3343L30.0402 26.0332L30.0025 41.9783C30.0025 42.5951 30.4764 43.0916 31.0706 43.0916C31.6572 43.0916 32.1386 42.5951 32.1386 41.9783L32.1762 24.7395L33.8685 23.7166V39.7596C33.8685 40.5418 34.4777 41.1736 35.2223 41.1736C35.967 41.1736 36.5762 40.5418 36.5762 39.7596V22.077L39.0883 20.5652L39.0507 37.3227C39.0507 37.6311 39.2914 37.8793 39.5847 37.8793C39.878 37.8793 40.1187 37.6311 40.1187 37.3227L40.1563 19.9183L42.315 18.6172L42.2773 35.3747C42.2773 35.9914 42.7512 36.4878 43.3454 36.4878C43.932 36.4878 44.4134 35.9914 44.4134 35.3747L44.451 17.3235L46.3088 16.2028V33.4868C46.3088 33.7952 46.5494 34.0434 46.8428 34.0434C47.1361 34.0434 47.3768 33.7952 47.3768 33.4868V14.7512C47.3768 14.7061 47.3618 14.6609 47.3542 14.6158ZM29.5513 4.04084C29.5513 4.04084 29.5738 4.02578 29.5814 4.01825C30.8148 2.76219 32.8005 2.76222 34.0265 4.04084C34.6206 4.66511 34.9516 5.49244 34.9516 6.37243C34.9516 6.57551 34.929 6.77862 34.8989 6.97417C34.7861 7.62853 34.4853 8.23019 34.0265 8.71155C33.8685 8.87702 33.6053 9.06505 33.2593 9.27565C31.7851 10.1632 28.7916 11.3892 26.0087 12.4045C26.7082 10.3211 27.5055 8.12491 28.22 6.47774C28.7314 5.30442 29.1978 4.40939 29.5437 4.04837L29.5513 4.04084ZM23.6846 3.94306L25.6251 5.02609C24.9332 6.56796 24.2563 8.38061 23.6846 10.0203C23.113 8.38061 22.4361 6.56796 21.7441 5.02609L23.6846 3.94306ZM13.3353 4.04084C13.9521 3.39401 14.7643 3.07809 15.5767 3.07809C16.389 3.07809 17.1712 3.39399 17.7879 4.01825C17.7954 4.02578 17.8105 4.03332 17.818 4.04084C18.164 4.40186 18.6303 5.29689 19.1418 6.47021C19.8563 8.10986 20.6611 10.3061 21.353 12.397C18.5701 11.3892 15.5842 10.1632 14.1025 9.26812C13.7565 9.05752 13.4933 8.86949 13.3353 8.70402C12.8615 8.21514 12.5756 7.60596 12.4628 6.96665C12.2823 5.93622 12.5681 4.83057 13.3353 4.03331V4.04084ZM4.15177 14.8038L11.2293 10.8702C11.2293 10.8702 11.2369 10.8852 11.2444 10.8928C12.5982 12.2992 16.9606 14.0667 20.097 15.2175L12.162 19.6325L4.15177 14.8113V14.8038ZM23.6846 26.5672L14.9298 21.2947L23.6696 16.436L32.4244 21.3022L23.6846 26.5672ZM35.1923 19.6325L27.2497 15.2175C30.3937 14.0743 34.7635 12.2992 36.1174 10.8928L43.21 14.8038L35.1847 19.6325H35.1923Z" fill="#202B9C"/>
<path d="M4.15625 34.2615L19.4471 44.7914V36.0441C19.4471 35.2995 19.0785 34.6076 18.4693 34.224L5.38975 25.8829C4.84821 25.5369 4.15625 25.9505 4.15625 26.6124V34.2615Z" fill="#F15F0B"/>
<path d="M14.2933 29.3887L11.1118 27.4482C10.9539 27.3504 10.0363 26.9518 10.4499 26.32C10.6981 25.9364 11.1494 26.2147 11.1494 26.2147L14.6844 28.3733C14.6844 28.3733 15.1583 28.614 15.053 29.0728C14.9251 29.6144 14.4061 29.4639 14.2933 29.3887Z" fill="#F15F0B"/>
<path d="M9.83365 25.7789C9.83365 26.0873 9.59297 26.343 9.29964 26.343C9.00631 26.343 8.76562 26.0948 8.76562 25.7789C8.76562 25.463 9.00631 25.2148 9.29964 25.2148C9.59297 25.2148 9.83365 25.463 9.83365 25.7789Z" fill="#F15F0B"/>
</svg>
